<?xml version="1.0" encoding="UTF-8"?>
<svg width="340px" height="216px" viewBox="0 0 340 216" version="1.1" xmlns="http://www.w3.org/2000/svg" xmlns:xlink="http://www.w3.org/1999/xlink">
    <!-- Generator: Sketch 41.2 (35397) - http://www.bohemiancoding.com/sketch -->
    <title>Group</title>
    <desc>Created with Sketch.</desc>
    <defs>
        <rect id="path-1" x="0" y="0" width="340" height="216"></rect>
        <mask id="mask-2" maskContentUnits="userSpaceOnUse" maskUnits="objectBoundingBox" x="0" y="0" width="340" height="216" fill="white">
            <use xlink:href="#path-1"></use>
        </mask>
    </defs>
    <g id="styleguide" stroke="none" stroke-width="1" fill="none" fill-rule="evenodd">
        <g id="Examples-of-use" transform="translate(-499.000000, -333.000000)">
            <g id="Group" transform="translate(499.000000, 333.000000)">
                <use id="Rectangle-4" stroke="#4370F7" mask="url(#mask-2)" stroke-width="2" fill="#4370F7" xlink:href="#path-1"></use>
                <g id="business-card-blue" transform="translate(42.000000, 62.000000)" fill="#FFFFFF">
                    <g id="logo-7-copy-2">
                        <path d="M1.74167812,1.46809369 L38.6461317,1.46809369 L38.6461317,10.6740186 L11.9166478,10.6740186 L11.9166478,25.694212 L37.1118109,25.694212 L37.1118109,34.900137 L11.9166478,34.900137 L11.9166478,58.6417329 L1.74167812,58.6417329 L1.74167812,1.46809369 Z M45.0256762,30.2971745 C45.0256762,25.721107 45.7793701,21.5623316 47.2867805,17.8207236 C48.794191,14.0791155 50.8803081,10.8893751 53.5451944,8.25140682 C56.2100808,5.61343852 59.3863623,3.5811567 63.0741343,2.15450038 C66.7619063,0.727844054 70.8130111,0.0145265923 75.2275703,0.0145265923 C79.6959656,-0.0393094954 83.7874469,0.620172686 87.5021369,1.99299292 C91.216827,3.36581316 94.4200262,5.37117734 97.1118305,8.00914564 C99.8036349,10.6471139 101.903211,13.8233955 103.410621,17.5380855 C104.918032,21.2527756 105.671726,25.3980921 105.671726,29.9741596 C105.671726,34.4425548 104.918032,38.5071185 103.410621,42.1679725 C101.903211,45.8288264 99.8036349,48.9781903 97.1118305,51.6161586 C94.4200262,54.2541269 91.216827,56.3133264 87.5021369,57.7938188 C83.7874469,59.2743112 79.6959656,60.0414639 75.2275703,60.0953 C70.8130111,60.0953 66.7619063,59.3819825 63.0741343,57.9553262 C59.3863623,56.5286699 56.2100808,54.5098469 53.5451944,51.8987966 C50.8803081,49.2877464 48.794191,46.1518413 47.2867805,42.4909874 C45.7793701,38.8301334 45.0256762,34.7655698 45.0256762,30.2971745 Z M55.6851682,29.6511447 C55.6851682,32.7198017 56.1562269,35.5461539 57.0983585,38.1302861 C58.04049,40.7144183 59.3729132,42.9485824 61.095668,44.8328455 C62.8184228,46.7171085 64.8776223,48.1975787 67.2733282,49.2743005 C69.6690341,50.3510222 72.3473392,50.889375 75.3083241,50.889375 C78.2693089,50.889375 80.9610729,50.3510222 83.3836968,49.2743005 C85.8063208,48.1975787 87.8789791,46.7171085 89.6017339,44.8328455 C91.3244887,42.9485824 92.6569119,40.7144183 93.5990434,38.1302861 C94.5411749,35.5461539 95.0122336,32.7198017 95.0122336,29.6511447 C95.0122336,26.797832 94.5411749,24.1329856 93.5990434,21.6565256 C92.6569119,19.1800656 91.3244887,17.0131956 89.6017339,15.1558505 C87.8789791,13.2985055 85.8063208,11.844953 83.3836968,10.7951492 C80.9610729,9.74534553 78.2693089,9.22045155 75.3083241,9.22045155 C72.3473392,9.22045155 69.6690341,9.74534553 67.2733282,10.7951492 C64.8776223,11.844953 62.8184228,13.2985055 61.095668,15.1558505 C59.3729132,17.0131956 58.04049,19.1800656 57.0983585,21.6565256 C56.1562269,24.1329856 55.6851682,26.797832 55.6851682,29.6511447 Z M115.46686,30.8654415 L140.709871,1.46809369 L154.438005,1.46809369 L127.708521,30.8654415 L156.214587,58.6417329 L141.921177,58.6417329 L115.46686,30.8654415 Z M207.493204,37.6457637 C207.493204,41.0912733 206.901016,44.2002607 205.716622,46.9728193 C204.532228,49.7453778 202.917169,52.1006713 200.871398,54.0387704 C198.825627,55.9768696 196.403039,57.4707986 193.603563,58.5206023 C190.804086,59.570406 187.762393,60.0953 184.478391,60.0953 C181.19439,60.0953 178.152697,59.570406 175.35322,58.5206023 C172.553743,57.4707986 170.117697,55.9768696 168.045008,54.0387704 C165.972318,52.1006713 164.35726,49.7453778 163.199784,46.9728193 C162.042308,44.2002607 161.463579,41.0912733 161.463579,37.6457637 L161.463579,1.46809369 L171.638549,1.46809369 L171.638549,37.3227488 C171.638549,38.7224871 171.85389,40.1894985 172.284578,41.723827 C172.715267,43.2581555 173.428585,44.6713316 174.424552,45.9633977 C175.42052,47.2554638 176.739484,48.3187105 178.381485,49.1531699 C180.023486,49.9876293 182.055767,50.4048527 184.478391,50.4048527 C186.901015,50.4048527 188.933297,49.9876293 190.575298,49.1531699 C192.217298,48.3187105 193.536263,47.2554638 194.53223,45.9633977 C195.528198,44.6713316 196.241515,43.2581555 196.672204,41.723827 C197.102893,40.1894985 197.318234,38.7224871 197.318234,37.3227488 L197.318234,1.46809369 L207.493204,1.46809369 L207.493204,37.6457637 Z M248.031575,13.7426603 C246.954853,12.1814138 245.514759,11.0374141 243.711251,10.3106269 C241.907742,9.58383969 240.010048,9.22045155 238.018113,9.22045155 C236.833719,9.22045155 235.689719,9.35503975 234.586079,9.62422019 C233.48244,9.89340063 232.486487,10.3240829 231.598191,10.9162798 C230.709896,11.5084768 229.996578,12.2756295 229.458218,13.2177611 C228.919857,14.1598926 228.65068,15.2769747 228.65068,16.5690408 C228.65068,18.5071399 229.323621,19.9876101 230.669524,21.0104958 C232.015426,22.0333815 233.684319,22.9216636 235.676255,23.6753688 C237.66819,24.429074 239.848519,25.1558503 242.217307,25.8557195 C244.586094,26.5555886 246.766423,27.5246236 248.758359,28.7628537 C250.750294,30.0010837 252.419187,31.6430597 253.76509,33.688831 C255.110992,35.7346024 255.783933,38.453284 255.783933,41.8449575 C255.783933,44.9136145 255.218662,47.5919197 254.088105,49.8799535 C252.957547,52.1679872 251.4367,54.0656808 249.525519,55.5730913 C247.614338,57.0805017 245.393633,58.2110426 242.863336,58.9647478 C240.33304,59.718453 237.668194,60.0953 234.868717,60.0953 C231.315536,60.0953 227.896995,59.5031119 224.612994,58.318718 C221.328993,57.1343241 218.50264,55.1424187 216.133853,52.3429421 L223.805457,44.9135992 C225.043687,46.7978623 226.672204,48.2648736 228.691057,49.3146774 C230.70991,50.3644811 232.849863,50.889375 235.110979,50.889375 C236.295372,50.889375 237.479749,50.7278692 238.664143,50.4048527 C239.848537,50.0818362 240.925242,49.5973186 241.894292,48.9512856 C242.863341,48.3052525 243.643953,47.4842645 244.23615,46.4882969 C244.828347,45.4923293 245.124441,44.3483296 245.124441,43.0562635 C245.124441,40.956656 244.4515,39.3415976 243.105598,38.2110398 C241.759695,37.080482 240.090802,36.1249057 238.098866,35.3442825 C236.106931,34.5636592 233.926602,33.8234241 231.557815,33.123555 C229.189027,32.4236858 227.008698,31.4681096 225.016763,30.2567976 C223.024827,29.0454856 221.355934,27.4304272 220.010031,25.411574 C218.664129,23.3927207 217.991188,20.6874978 217.991188,17.2958243 C217.991188,14.3348395 218.596835,11.7776637 219.808147,9.62422019 C221.019459,7.47077668 222.6076,5.68075362 224.572617,4.2540973 C226.537634,2.82744097 228.785257,1.76419419 231.315553,1.06432505 C233.845849,0.364455913 236.429943,0.0145265923 239.067911,0.0145265923 C242.082732,0.0145265923 245.003296,0.472126473 247.829691,1.38733996 C250.656085,2.30255345 253.199802,3.8099413 255.460918,5.90954871 L248.031575,13.7426603 Z" id="FOKUS-Copy"></path>
                        <path d="M0.560280995,72.48352 L5.72851957,72.48352 L10.8160044,85.834803 L15.9573251,72.48352 L21.0717278,72.48352 L21.0717278,91.5413997 L17.8415787,91.5413997 L17.8415787,75.7136691 L17.7877429,75.7136691 L12.0003924,91.5413997 L9.63161641,91.5413997 L3.84426592,75.7136691 L3.7904301,75.7136691 L3.7904301,91.5413997 L0.560280995,91.5413997 L0.560280995,72.48352 Z M51.2766126,86.5346686 L44.0626129,86.5346686 L40.9939713,91.5413997 L36.8755311,91.5413997 L49.069344,72.48352 L62.420627,72.48352 L62.420627,75.5521617 L54.6682692,75.5521617 L54.6682692,80.2358779 L61.9361046,80.2358779 L61.9361046,83.3045195 L54.6682692,83.3045195 L54.6682692,88.4727581 L62.7436419,88.4727581 L62.7436419,91.5413997 L51.2766126,91.5413997 L51.2766126,86.5346686 Z M51.2766126,83.6275344 L51.2766126,75.5521617 L50.8728439,75.5521617 L45.8391949,83.6275344 L51.2766126,83.6275344 Z M96.7708698,90.1416685 C94.4200273,91.3978438 91.7910711,92.0259221 88.8839224,92.0259221 C87.4124027,92.0259221 86.0620344,91.7881496 84.832777,91.3125975 C83.6035197,90.8370454 82.5447592,90.1641044 81.6564638,89.2937543 C80.7681683,88.4234042 80.0727959,87.3781026 79.5703258,86.1578179 C79.0678556,84.9375332 78.8166243,83.5826787 78.8166243,82.0932136 C78.8166243,80.5678578 79.0678556,79.1815993 79.5703258,77.9343966 C80.0727959,76.6871939 80.7681683,75.6239472 81.6564638,74.7446244 C82.5447592,73.8653016 83.6035197,73.1878743 84.832777,72.7123222 C86.0620344,72.2367701 87.4124027,71.9989976 88.8839224,71.9989976 C90.3374967,71.9989976 91.7013238,72.1739623 92.9754446,72.5238969 C94.2495653,72.8738314 95.3890788,73.4974234 96.3940191,74.3946916 L93.8906535,76.924975 C93.2805112,76.3327781 92.5402761,75.8751782 91.669926,75.5521617 C90.7995759,75.2291451 89.8798899,75.0676393 88.9108403,75.0676393 C87.9238454,75.0676393 87.031077,75.242604 86.2325083,75.5925385 C85.4339397,75.9424731 84.7475399,76.4269906 84.1732883,77.0461056 C83.5990367,77.6652206 83.1548956,78.3875106 82.8408518,79.2129973 C82.5268079,80.038484 82.3697883,80.9267661 82.3697883,81.8778703 C82.3697883,82.900756 82.5268079,83.8428734 82.8408518,84.7042508 C83.1548956,85.5656282 83.5990367,86.3103496 84.1732883,86.9384373 C84.7475399,87.566525 85.4339397,88.060015 86.2325083,88.4189223 C87.031077,88.7778295 87.9238454,88.9572805 88.9108403,88.9572805 C89.7722177,88.9572805 90.5842332,88.8765275 91.3469111,88.7150193 C92.109589,88.553511 92.7870163,88.3022797 93.3792132,87.9613178 L93.3792132,83.466027 L89.4761164,83.466027 L89.4761164,80.3973853 L96.7708698,80.3973853 L96.7708698,90.1416685 Z M114.53968,72.48352 L117.931337,72.48352 L117.931337,88.4727581 L126.033628,88.4727581 L126.033628,91.5413997 L114.53968,91.5413997 L114.53968,72.48352 Z M142.268118,72.48352 L154.892617,72.48352 L154.892617,75.5521617 L145.659774,75.5521617 L145.659774,80.2358779 L154.408095,80.2358779 L154.408095,83.3045195 L145.659774,83.3045195 L145.659774,88.4727581 L155.377139,88.4727581 L155.377139,91.5413997 L142.268118,91.5413997 L142.268118,72.48352 Z M172.473002,72.48352 L179.094808,72.48352 C180.010022,72.48352 180.893817,72.5687592 181.746222,72.7392401 C182.598627,72.9097211 183.356807,73.2013289 184.020785,73.6140722 C184.684764,74.0268155 185.214144,74.5831134 185.608942,75.2829826 C186.00374,75.9828517 186.201136,76.8711338 186.201136,77.9478556 C186.201136,79.3296485 185.819803,80.487107 185.057125,81.4202659 C184.294447,82.3534247 183.204283,82.9186952 181.786599,83.1160942 L186.847166,91.5413997 L182.755644,91.5413997 L178.341107,83.466027 L175.864659,83.466027 L175.864659,91.5413997 L172.473002,91.5413997 L172.473002,72.48352 Z M178.502614,80.5588928 C178.987139,80.5588928 179.471656,80.5364614 179.956181,80.491598 C180.440706,80.4467346 180.884847,80.339064 181.288618,80.1685831 C181.692388,79.9981022 182.019886,79.7378983 182.271121,79.3879637 C182.522356,79.0380292 182.647972,78.5490254 182.647972,77.9209377 C182.647972,77.3646314 182.531329,76.9160041 182.298039,76.5750422 C182.064749,76.2340803 181.759683,75.9783627 181.38283,75.8078818 C181.005978,75.6374009 180.588754,75.525244 180.131148,75.4714079 C179.673541,75.4175718 179.2294,75.3906542 178.798711,75.3906542 L175.864659,75.3906542 L175.864659,80.5588928 L178.502614,80.5588928 Z M203.189327,72.48352 L207.684618,72.48352 L216.917461,86.6423403 L216.971297,86.6423403 L216.971297,72.48352 L220.362953,72.48352 L220.362953,91.5413997 L216.056088,91.5413997 L206.63482,76.924975 L206.580984,76.924975 L206.580984,91.5413997 L203.189327,91.5413997 L203.189327,72.48352 Z M238.374025,72.48352 L250.998525,72.48352 L250.998525,75.5521617 L241.765682,75.5521617 L241.765682,80.2358779 L250.514002,80.2358779 L250.514002,83.3045195 L241.765682,83.3045195 L241.765682,88.4727581 L251.483047,88.4727581 L251.483047,91.5413997 L238.374025,91.5413997 L238.374025,72.48352 Z" id="MÆGLERNE"></path>
                    </g>
                </g>
            </g>
        </g>
    </g>
</svg>