<?xml version="1.0" encoding="UTF-8"?>
<svg width="356px" height="292px" viewBox="0 0 356 292" version="1.1" xmlns="http://www.w3.org/2000/svg" xmlns:xlink="http://www.w3.org/1999/xlink">
    <!-- Generator: Sketch 41.2 (35397) - http://www.bohemiancoding.com/sketch -->
    <title>Group 5</title>
    <desc>Created with Sketch.</desc>
    <defs></defs>
    <g id="styleguide" stroke="none" stroke-width="1" fill="none" fill-rule="evenodd">
        <g id="data-graphics" transform="translate(-520.000000, -919.000000)">
            <g id="Group-5" transform="translate(519.000000, 919.000000)">
                <path d="M1.5,0.5 L1.5,290.5431" id="Line" stroke="#000000" stroke-linecap="square"></path>
                <path d="M2.5,290.5 L356.5,290.5" id="Line" stroke="#000000" stroke-linecap="square"></path>
                <g id="Group-2" transform="translate(77.000000, 90.000000)">
                    <rect id="Rectangle-12" fill="#E5E5E5" x="0" y="0" width="40" height="40"></rect>
                    <rect id="Rectangle-12-Copy" fill="#4370F7" x="0" y="40" width="40" height="60"></rect>
                    <rect id="Rectangle-12-Copy-2" fill="#F9E0C2" x="0" y="100" width="40" height="100"></rect>
                </g>
                <g id="Group-3" transform="translate(140.500000, 190.000000)">
                    <rect id="Rectangle-12-Copy-9" fill="#596869" x="0" y="0" width="40" height="20"></rect>
                    <rect id="Rectangle-12-Copy-4" fill="#4370F7" x="0" y="20" width="40" height="60"></rect>
                    <rect id="Rectangle-12-Copy-5" fill="#F9E0C2" x="0" y="80" width="40" height="20"></rect>
                </g>
                <g id="Group-4" transform="translate(204.000000, 62.000000)">
                    <rect id="Rectangle-12-Copy-3" fill="#E5E5E5" x="0" y="128" width="40" height="40"></rect>
                    <rect id="Rectangle-12-Copy-8" fill="#596869" x="0" y="0.55709819" width="40" height="127.442902"></rect>
                    <rect id="Rectangle-12-Copy-6" fill="#4370F7" x="0" y="168" width="40" height="40"></rect>
                    <rect id="Rectangle-12-Copy-7" fill="#F9E0C2" x="0" y="208" width="40" height="20"></rect>
                </g>
            </g>
        </g>
    </g>
</svg>