<?xml version="1.0" encoding="UTF-8"?>
<svg width="350px" height="190px" viewBox="0 0 350 190" version="1.1" xmlns="http://www.w3.org/2000/svg" xmlns:xlink="http://www.w3.org/1999/xlink">
    <!-- Generator: Sketch 41.2 (35397) - http://www.bohemiancoding.com/sketch -->
    <title>logo black w. white bg </title>
    <desc>Created with Sketch.</desc>
    <defs>
        <rect id="path-1" x="0" y="0" width="350" height="190"></rect>
        <mask id="mask-2" maskContentUnits="userSpaceOnUse" maskUnits="objectBoundingBox" x="0" y="0" width="350" height="190" fill="white">
            <use xlink:href="#path-1"></use>
        </mask>
    </defs>
    <g id="styleguide" stroke="none" stroke-width="1" fill="none" fill-rule="evenodd">
        <g id="Logo" transform="translate(-499.000000, -2575.000000)">
            <g id="logo-black-w.-white-bg-" transform="translate(499.000000, 2575.000000)">
                <use id="Rectangle-Copy-4" stroke="#000000" mask="url(#mask-2)" stroke-width="2" xlink:href="#path-1"></use>
                <g id="Logo-Copy" transform="translate(42.000000, 45.000000)" fill="#000000">
                    <path d="M0.327895399,1.67455295 L38.8179326,1.67455295 L38.8179326,11.2760064 L10.9400282,11.2760064 L10.9400282,26.9415358 L37.2176903,26.9415358 L37.2176903,36.5429892 L10.9400282,36.5429892 L10.9400282,61.3163599 L0.327895399,61.3163599 L0.327895399,1.67455295 Z M45.4715714,31.75399 C45.4715714,26.9813138 46.2576474,22.6438585 47.8298231,18.7414938 C49.4019988,14.8391292 51.577745,11.5123431 54.357127,8.76103562 C57.136509,6.00972817 60.4492581,3.89013026 64.2954736,2.40217827 C68.1416891,0.914226289 72.3668478,0.170261457 76.9710766,0.170261457 C81.6314545,0.114112325 85.8987245,0.801928868 89.7730146,2.23373172 C93.6473047,3.66553457 96.9881279,5.75705835 99.7955844,8.50836579 C102.603041,11.2596732 104.792824,14.5724223 106.365,18.4467124 C107.937176,22.3210024 108.723252,26.6444207 108.723252,31.4170969 C108.723252,36.0774748 107.937176,40.3166706 106.365,44.1348116 C104.792824,47.9529525 102.603041,51.2376274 99.7955844,53.9889349 C96.9881279,56.7402423 93.6473047,58.8879144 89.7730146,60.4320155 C85.8987245,61.9761166 81.6314545,62.7762297 76.9710766,62.8323788 C72.3668478,62.8323788 68.1416891,62.088414 64.2954736,60.600462 C60.4492581,59.1125101 57.136509,57.0069492 54.357127,54.2837163 C51.577745,51.5604835 49.4019988,48.2898456 47.8298231,44.4717047 C46.2576474,40.6535637 45.4715714,36.4143679 45.4715714,31.75399 Z M56.5890438,31.0802038 C56.5890438,34.2807043 57.0803413,37.2284894 58.0629511,39.9236478 C59.0455609,42.6188061 60.4352311,44.9489601 62.2320033,46.9141797 C64.0287755,48.8793993 66.1764476,50.4234772 68.6750839,51.5464599 C71.1737203,52.6694425 73.9670977,53.2309254 77.0552999,53.2309254 C80.1435021,53.2309254 82.9509166,52.6694425 85.4776275,51.5464599 C88.0043384,50.4234772 90.1660476,48.8793993 91.9628198,46.9141797 C93.759592,44.9489601 95.1492621,42.6188061 96.1318719,39.9236478 C97.1144817,37.2284894 97.6057793,34.2807043 97.6057793,31.0802038 C97.6057793,28.1042998 97.1144817,25.3249595 96.1318719,22.7420994 C95.1492621,20.1592394 93.759592,17.8992708 91.9628198,15.9621257 C90.1660476,14.0249807 88.0043384,12.5089769 85.4776275,11.4140688 C82.9509166,10.3191607 80.1435021,9.77171493 77.0552999,9.77171493 C73.9670977,9.77171493 71.1737203,10.3191607 68.6750839,11.4140688 C66.1764476,12.5089769 64.0287755,14.0249807 62.2320033,15.9621257 C60.4352311,17.8992708 59.0455609,20.1592394 58.0629511,22.7420994 C57.0803413,25.3249595 56.5890438,28.1042998 56.5890438,31.0802038 Z M118.93923,32.3466723 L145.266795,1.68628043 L159.584752,1.68628043 L131.706848,32.3466723 L161.437664,61.3163599 L146.530145,61.3163599 L118.93923,32.3466723 Z M214.919445,39.4183081 C214.919445,43.0118525 214.301813,46.2544162 213.066533,49.1460965 C211.831252,52.0377768 210.146803,54.4942644 208.013136,56.5156331 C205.879469,58.5370019 203.352796,60.0951169 200.433041,61.190025 C197.513286,62.284933 194.340908,62.8323788 190.915811,62.8323788 C187.490714,62.8323788 184.318336,62.284933 181.398581,61.190025 C178.478826,60.0951169 175.938116,58.5370019 173.776374,56.5156331 C171.614633,54.4942644 169.930184,52.0377768 168.722978,49.1460965 C167.515771,46.2544162 166.912177,43.0118525 166.912177,39.4183081 L166.912177,1.68628043 L177.52431,1.68628043 L177.52431,39.081415 C177.52431,40.5412924 177.748903,42.0713333 178.198096,43.6715835 C178.647289,45.2718338 179.391254,46.7457264 180.430013,48.0933055 C181.468772,49.4408847 182.844405,50.5498134 184.556954,51.4201249 C186.269502,52.2904365 188.3891,52.7255857 190.915811,52.7255857 C193.442522,52.7255857 195.56212,52.2904365 197.274668,51.4201249 C198.987217,50.5498134 200.36285,49.4408847 201.401609,48.0933055 C202.440368,46.7457264 203.184333,45.2718338 203.633526,43.6715835 C204.082719,42.0713333 204.307312,40.5412924 204.307312,39.081415 L204.307312,1.68628043 L214.919445,1.68628043 L214.919445,39.4183081 Z M257.199529,14.4882184 C256.076547,12.8598936 254.57458,11.6667424 252.693584,10.9087292 C250.812588,10.1507159 248.833361,9.77171493 246.755843,9.77171493 C245.520562,9.77171493 244.327411,9.91208565 243.176354,10.1928313 C242.025297,10.473577 240.986553,10.9227633 240.060093,11.5404037 C239.133632,12.1580442 238.389667,12.9581573 237.828176,13.9407671 C237.266684,14.9233769 236.985943,16.0884539 236.985943,17.4360331 C236.985943,19.4574018 237.687797,21.0014797 239.091525,22.0683132 C240.495253,23.1351467 242.23585,24.0615935 244.313368,24.8476813 C246.390886,25.6337692 248.664892,26.3917711 251.135453,27.1217098 C253.606015,27.8516485 255.880021,28.8623177 257.957539,30.1537477 C260.035057,31.4451778 261.775654,33.1577006 263.179382,35.2913676 C264.58311,37.4250346 265.284964,40.2605232 265.284964,43.7979185 C265.284964,46.998419 264.695407,49.7917963 263.516275,52.1781344 C262.337143,54.5644725 260.750954,56.5436997 258.75766,58.1158754 C256.764366,59.6880511 254.448249,60.8671651 251.80924,61.653253 C249.17023,62.4393408 246.39089,62.8323788 243.471135,62.8323788 C239.765293,62.8323788 236.199876,62.2147477 232.774779,60.9794668 C229.349682,59.7441859 226.401897,57.6666992 223.931335,54.7469443 L231.932546,46.9984029 C233.223976,48.9636226 234.922462,50.4936634 237.028055,51.5885715 C239.133647,52.6834796 241.365542,53.2309254 243.723805,53.2309254 C244.959086,53.2309254 246.194348,53.0624805 247.429629,52.7255857 C248.66491,52.3886909 249.787876,51.8833563 250.79856,51.2095668 C251.809245,50.5357772 252.623395,49.6795158 253.241035,48.6407568 C253.858676,47.6019979 254.167491,46.4088468 254.167491,45.0612676 C254.167491,42.8714515 253.465638,41.1870028 252.061909,40.007871 C250.658181,38.8287393 248.917584,37.8321071 246.840066,37.0179447 C244.762548,36.2037823 242.488543,35.4317434 240.017981,34.7018046 C237.547419,33.9718659 235.273413,32.9752338 233.195896,31.7118783 C231.118378,30.4485229 229.377781,28.7640742 227.974052,26.6584818 C226.570324,24.5528893 225.868471,21.7314378 225.868471,18.1940425 C225.868471,15.1058403 226.500139,12.4387966 227.763494,10.1928313 C229.02685,7.94686605 230.683224,6.07993543 232.732668,4.59198345 C234.782111,3.10403147 237.126302,1.99510275 239.765311,1.26516405 C242.40432,0.535225337 245.099438,0.170261457 247.850746,0.170261457 C250.995097,0.170261457 254.041142,0.647521915 256.988971,1.60205715 C259.9368,2.55659238 262.589807,4.12874448 264.948071,6.31856061 L257.199529,14.4882184 Z" id="FOKUS-Copy"></path>
                    <path d="M0.327895399,78.5499714 L5.78519751,78.5499714 L11.1572293,92.6480018 L16.5861079,78.5499714 L21.9865631,78.5499714 L21.9865631,98.6737729 L18.5757493,98.6737729 L18.5757493,81.9607852 L18.5189024,81.9607852 L12.407861,98.6737729 L9.90659754,98.6737729 L3.79555611,81.9607852 L3.73870922,81.9607852 L3.73870922,98.6737729 L0.327895399,98.6737729 L0.327895399,78.5499714 Z M53.8808302,93.3870115 L46.263346,93.3870115 L43.0230729,98.6737729 L38.6742853,98.6737729 L51.5501074,78.5499714 L65.6481379,78.5499714 L65.6481379,81.7902445 L57.4621847,81.7902445 L57.4621847,86.7359245 L65.1365158,86.7359245 L65.1365158,89.9761977 L57.4621847,89.9761977 L57.4621847,95.4334998 L65.9892193,95.4334998 L65.9892193,98.6737729 L53.8808302,98.6737729 L53.8808302,93.3870115 Z M53.8808302,90.317279 L53.8808302,81.7902445 L53.4544785,81.7902445 L48.1392936,90.317279 L53.8808302,90.317279 Z M101.919616,97.1957536 C99.4372891,98.5221878 96.6612934,99.185395 93.5915456,99.185395 C92.0377227,99.185395 90.6118272,98.9343237 89.3138166,98.4321736 C88.015806,97.9300235 86.8978282,97.2194444 85.9598497,96.3004149 C85.0218712,95.3813855 84.2876061,94.2776193 83.7570324,92.9890832 C83.2264587,91.7005471 82.9611759,90.2699145 82.9611759,88.6971425 C82.9611759,87.0864723 83.2264587,85.6226794 83.7570324,84.3057197 C84.2876061,82.98876 85.0218712,81.866045 85.9598497,80.937541 C86.8978282,80.0090371 88.015806,79.2937208 89.3138166,78.7915707 C90.6118272,78.2894206 92.0377227,78.0383493 93.5915456,78.0383493 C95.1264195,78.0383493 96.5665265,78.2230999 97.9119098,78.5926065 C99.2572931,78.9621132 100.46054,79.6205832 101.521688,80.5680362 L98.878307,83.2398404 C98.234039,82.6145214 97.452402,82.1313276 96.5333725,81.7902445 C95.6143431,81.4491614 94.6432183,81.2786224 93.6199691,81.2786224 C92.5777707,81.2786224 91.6350691,81.463373 90.7918359,81.8328797 C89.9486027,82.2023863 89.2238121,82.7140033 88.6174421,83.3677459 C88.0110722,84.0214885 87.54209,84.7841767 87.2104814,85.6558335 C86.8788729,86.5274903 86.7130711,87.4654547 86.7130711,88.4697549 C86.7130711,89.5498513 86.8788729,90.5446621 87.2104814,91.454217 C87.54209,92.3637719 88.0110722,93.1501461 88.6174421,93.8133632 C89.2238121,94.4765803 89.9486027,94.9976717 90.7918359,95.3766529 C91.6350691,95.7556341 92.5777707,95.9451218 93.6199691,95.9451218 C94.529524,95.9451218 95.3869561,95.8598523 96.1922911,95.6893108 C96.9976262,95.5187693 97.7129425,95.2534864 98.3382615,94.8934542 L98.3382615,90.1467383 L94.2168615,90.1467383 L94.2168615,86.9064652 L101.919616,86.9064652 L101.919616,97.1957536 Z M120.68225,78.5499714 L124.263604,78.5499714 L124.263604,95.4334998 L132.819062,95.4334998 L132.819062,98.6737729 L120.68225,98.6737729 L120.68225,78.5499714 Z M149.96156,78.5499714 L163.292157,78.5499714 L163.292157,81.7902445 L153.542914,81.7902445 L153.542914,86.7359245 L162.780535,86.7359245 L162.780535,89.9761977 L153.542914,89.9761977 L153.542914,95.4334998 L163.803779,95.4334998 L163.803779,98.6737729 L149.96156,98.6737729 L149.96156,78.5499714 Z M181.855827,78.5499714 L188.847995,78.5499714 C189.814397,78.5499714 190.747624,78.639978 191.647705,78.8199941 C192.547785,79.0000102 193.348371,79.3079278 194.049486,79.7437562 C194.750601,80.1795846 195.30959,80.7669966 195.72647,81.50601 C196.143349,82.2450234 196.351785,83.1829878 196.351785,84.3199314 C196.351785,85.7790091 195.949124,87.0012051 195.143789,87.9865563 C194.338454,88.9719074 193.187316,89.5687938 191.69034,89.7772335 L197.033948,98.6737729 L192.713584,98.6737729 L188.052139,90.1467383 L185.437181,90.1467383 L185.437181,98.6737729 L181.855827,98.6737729 L181.855827,78.5499714 Z M188.222679,87.0770059 C188.734304,87.0770059 189.245921,87.0533199 189.757545,87.0059473 C190.26917,86.9585746 190.738152,86.844882 191.164506,86.6648659 C191.59086,86.4848498 191.936675,86.2100926 192.201962,85.8405859 C192.467249,85.4710792 192.59989,84.9547251 192.59989,84.291508 C192.59989,83.7040871 192.476723,83.2303677 192.230385,82.8703355 C191.984048,82.5103034 191.661918,82.2402833 191.263988,82.0602673 C190.866058,81.8802512 190.425499,81.7618213 189.942298,81.7049741 C189.459097,81.648127 188.990115,81.6197038 188.535337,81.6197038 L185.437181,81.6197038 L185.437181,87.0770059 L188.222679,87.0770059 Z M214.290139,78.5499714 L219.036855,78.5499714 L228.786098,93.5007053 L228.842945,93.5007053 L228.842945,78.5499714 L232.424299,78.5499714 L232.424299,98.6737729 L227.876548,98.6737729 L217.928341,83.2398404 L217.871494,83.2398404 L217.871494,98.6737729 L214.290139,98.6737729 L214.290139,78.5499714 Z M251.442744,78.5499714 L264.773342,78.5499714 L264.773342,81.7902445 L255.024099,81.7902445 L255.024099,86.7359245 L264.26172,86.7359245 L264.26172,89.9761977 L255.024099,89.9761977 L255.024099,95.4334998 L265.284964,95.4334998 L265.284964,98.6737729 L251.442744,98.6737729 L251.442744,78.5499714 Z" id="MÆGLERNE"></path>
                </g>
            </g>
        </g>
    </g>
</svg>