<?xml version="1.0" encoding="UTF-8"?>
<svg width="111px" height="41px" viewBox="0 0 111 41" version="1.1" xmlns="http://www.w3.org/2000/svg" xmlns:xlink="http://www.w3.org/1999/xlink">
    <!-- Generator: Sketch 41.2 (35397) - http://www.bohemiancoding.com/sketch -->
    <title>logo 7</title>
    <desc>Created with Sketch.</desc>
    <defs></defs>
    <g id="styleguide" stroke="none" stroke-width="1" fill="none" fill-rule="evenodd">
        <g id="color" transform="translate(-129.000000, -80.000000)" fill="#4370F7">
            <g id="logo-7" transform="translate(129.000000, 80.500000)">
                <g id="Group-Copy-2" transform="translate(0.398727, 0.279591)">
                    <path d="M0.781366847,0.782744505 L16.6660565,0.782744505 L16.6660565,4.74522726 L5.16095305,4.74522726 L5.16095305,11.2103307 L16.0056427,11.2103307 L16.0056427,15.1728135 L5.16095305,15.1728135 L5.16095305,25.391848 L0.781366847,25.391848 L0.781366847,0.782744505 Z M19.4119875,13.1915721 C19.4119875,11.2219071 19.7363981,9.43185601 20.3852289,7.82136519 C21.0340597,6.21087438 21.9319818,4.8379226 23.079022,3.70246864 C24.2260622,2.56701469 25.593221,1.69226482 27.1805393,1.07819278 C28.7678575,0.464120745 30.5115642,0.157089332 32.4117117,0.157089332 C34.3350316,0.133916803 36.0961175,0.417776033 37.695022,1.00867554 C39.2939266,1.59957505 40.6726714,2.46273883 41.8312979,3.59819278 C42.9899244,4.73364673 43.8936395,6.10080548 44.5424703,7.69971002 C45.1913011,9.29861457 45.5157117,11.0828726 45.5157117,13.0525376 C45.5157117,14.9758576 45.1913011,16.7253573 44.5424703,18.3010893 C43.8936395,19.8768213 42.9899244,21.232394 41.8312979,22.367848 C40.6726714,23.5033019 39.2939266,24.3896379 37.695022,25.0268824 C36.0961175,25.664127 34.3350316,25.9943306 32.4117117,26.0175031 C30.5115642,26.0175031 28.7678575,25.7104717 27.1805393,25.0963997 C25.593221,24.4823276 24.2260622,23.6133708 23.079022,22.4895031 C21.9319818,21.3656354 21.0340597,20.0158558 20.3852289,18.4401238 C19.7363981,16.8643918 19.4119875,15.1148921 19.4119875,13.1915721 Z M24.0001255,12.9135031 C24.0001255,14.2343373 24.2028821,15.4508769 24.6084013,16.5631583 C25.0139206,17.6754397 25.5874321,18.6370853 26.3289531,19.4481238 C27.070474,20.2591624 27.95681,20.8963974 28.9879875,21.359848 C30.0191651,21.8232985 31.1719812,22.0550204 32.4464703,22.0550204 C33.7209594,22.0550204 34.8795685,21.8232985 35.9223324,21.359848 C36.9650962,20.8963974 37.8572252,20.2591624 38.5987462,19.4481238 C39.3402671,18.6370853 39.9137786,17.6754397 40.3192979,16.5631583 C40.7248172,15.4508769 40.9275737,14.2343373 40.9275737,12.9135031 C40.9275737,11.6853591 40.7248172,10.538336 40.3192979,9.47239968 C39.9137786,8.40646331 39.3402671,7.47378298 38.5987462,6.67433071 C37.8572252,5.87487844 36.9650962,5.24922952 35.9223324,4.79736519 C34.8795685,4.34550087 33.7209594,4.11957209 32.4464703,4.11957209 C31.1719812,4.11957209 30.0191651,4.34550087 28.9879875,4.79736519 C27.95681,5.24922952 27.070474,5.87487844 26.3289531,6.67433071 C25.5874321,7.47378298 25.0139206,8.40646331 24.6084013,9.47239968 C24.2028821,10.538336 24.0001255,11.6853591 24.0001255,12.9135031 Z M49.7318064,13.4361698 L60.597091,0.782744505 L66.5060565,0.782744505 L55.0009531,13.4361698 L67.2707462,25.391848 L61.1184703,25.391848 L49.7318064,13.4361698 Z M89.3424703,16.3546066 C89.3424703,17.8376485 89.0875763,19.175842 88.5777806,20.3692273 C88.067985,21.5626125 87.3728195,22.5763955 86.4922634,23.4106066 C85.6117073,24.2448176 84.5689591,24.8878457 83.3639875,25.33971 C82.159016,25.7915744 80.8497877,26.0175031 79.4362634,26.0175031 C78.0227391,26.0175031 76.7135108,25.7915744 75.5085393,25.33971 C74.3035677,24.8878457 73.2550265,24.2448176 72.3628841,23.4106066 C71.4707417,22.5763955 70.7755762,21.5626125 70.2773668,20.3692273 C69.7791575,19.175842 69.5300565,17.8376485 69.5300565,16.3546066 L69.5300565,0.782744505 L73.9096427,0.782744505 L73.9096427,16.2155721 C73.9096427,16.8180579 74.0023314,17.4494998 74.1877117,18.1099169 C74.3730919,18.770334 74.6801233,19.3786038 75.1088151,19.9347445 C75.5375069,20.4908852 76.1052254,20.9485358 76.8119875,21.30771 C77.5187497,21.6668842 78.3934996,21.8464686 79.4362634,21.8464686 C80.4790272,21.8464686 81.3537771,21.6668842 82.0605393,21.30771 C82.7673014,20.9485358 83.3350199,20.4908852 83.7637117,19.9347445 C84.1924035,19.3786038 84.4994349,18.770334 84.6848151,18.1099169 C84.8701954,17.4494998 84.9628841,16.8180579 84.9628841,16.2155721 L84.9628841,0.782744505 L89.3424703,0.782744505 L89.3424703,16.3546066 Z M106.791298,6.06605485 C106.327847,5.39405149 105.707991,4.90164262 104.931712,4.58881347 C104.155432,4.27598432 103.338613,4.11957209 102.481229,4.11957209 C101.971433,4.11957209 101.479024,4.17750255 101.003988,4.29336519 C100.528951,4.40922784 100.100265,4.5946053 99.7179186,4.84950313 C99.3355718,5.10440095 99.0285404,5.43460455 98.7968151,5.84012381 C98.5650898,6.24564308 98.4492289,6.72646586 98.4492289,7.28260657 C98.4492289,8.11681764 98.7388812,8.75405265 99.3181944,9.19433071 C99.8975077,9.63460877 100.615845,10.0169498 101.473229,10.3413652 C102.330613,10.6657806 103.269086,10.9786051 104.288677,11.279848 C105.308268,11.5810908 106.246742,11.9981901 107.104125,12.5311583 C107.961509,13.0641265 108.679847,13.770878 109.25916,14.6514342 C109.838473,15.5319903 110.128125,16.7021855 110.128125,18.1620548 C110.128125,19.482889 109.884818,20.6357051 109.398194,21.6205376 C108.911571,22.6053701 108.256957,23.4221895 107.434332,24.0710204 C106.611708,24.7198512 105.655855,25.206467 104.566746,25.5308824 C103.477637,25.8552979 102.330614,26.0175031 101.125643,26.0175031 C99.5962558,26.0175031 98.1248222,25.7626091 96.7112979,25.2528135 C95.2977736,24.7430178 94.081234,23.8856471 93.0616427,22.6806755 L96.3637117,19.4828824 C96.8966799,20.293921 97.5976384,20.9253629 98.4666082,21.3772273 C99.3355781,21.8290916 100.256672,22.0550204 101.229919,22.0550204 C101.739714,22.0550204 102.249502,21.9855038 102.759298,21.8464686 C103.269094,21.7074335 103.732537,21.4988838 104.149643,21.2208135 C104.566748,20.9427431 104.902745,20.5893673 105.157643,20.1606755 C105.412541,19.7319837 105.539988,19.2395749 105.539988,18.6834342 C105.539988,17.7797055 105.250335,17.08454 104.671022,16.5979169 C104.091709,16.1112938 103.373371,15.6999876 102.515988,15.3639859 C101.658604,15.0279842 100.720131,14.7093667 99.7005393,14.4081238 C98.680948,14.1068809 97.7424746,13.6955747 96.885091,13.1741928 C96.0277074,12.6528109 95.3093697,11.9576454 94.7300565,11.0886755 C94.1507433,10.2197057 93.861091,9.05530353 93.861091,7.59543416 C93.861091,6.32094503 94.121778,5.22026638 94.64316,4.29336519 C95.1645419,3.36646401 95.8481212,2.59598895 96.6939186,1.98191692 C97.5397159,1.36784488 98.5071545,0.910194287 99.5962634,0.608951401 C100.685372,0.307708516 101.797637,0.157089332 102.933091,0.157089332 C104.230753,0.157089332 105.487844,0.35405288 106.704401,0.747985884 C107.920959,1.14191889 109.015845,1.79073999 109.989091,2.69446864 L106.791298,6.06605485 Z" id="FOKUS-Copy"></path>
                    <path d="M0.2728611,31.349733 L2.49741282,31.349733 L4.68720593,37.0964916 L6.90017144,31.349733 L9.10155076,31.349733 L9.10155076,39.5527675 L7.71120593,39.5527675 L7.71120593,32.7400778 L7.68803351,32.7400778 L5.19699903,39.5527675 L4.17741282,39.5527675 L1.68637834,32.7400778 L1.66320593,32.7400778 L1.66320593,39.5527675 L0.2728611,39.5527675 L0.2728611,31.349733 Z M22.1025621,37.397733 L18.9974587,37.397733 L17.6766311,39.5527675 L15.9039414,39.5527675 L21.1524932,31.349733 L26.8992518,31.349733 L26.8992518,32.6705606 L23.5624242,32.6705606 L23.5624242,34.6865606 L26.6907001,34.6865606 L26.6907001,36.0073882 L23.5624242,36.0073882 L23.5624242,38.2319399 L27.0382863,38.2319399 L27.0382863,39.5527675 L22.1025621,39.5527675 L22.1025621,37.397733 Z M22.1025621,36.1464227 L22.1025621,32.6705606 L21.928769,32.6705606 L19.7621483,36.1464227 L22.1025621,36.1464227 Z M41.684539,38.9502847 C40.6726719,39.4909771 39.541097,39.7613192 38.2897804,39.7613192 C37.6563979,39.7613192 37.0751624,39.6589754 36.5460563,39.4542847 C36.0169502,39.2495941 35.5612306,38.9599418 35.1788838,38.5853192 C34.7965371,38.2106967 34.4972298,37.7607701 34.2809528,37.2355261 C34.0646759,36.7102821 33.956539,36.1271155 33.956539,35.4860089 C33.956539,34.8294539 34.0646759,34.2327702 34.2809528,33.6959399 C34.4972298,33.1591096 34.7965371,32.701459 35.1788838,32.3229744 C35.5612306,31.9444897 36.0169502,31.6529064 36.5460563,31.4482158 C37.0751624,31.2435251 37.6563979,31.1411813 38.2897804,31.1411813 C38.9154387,31.1411813 39.5024673,31.2164909 40.0508838,31.3671123 C40.5993004,31.5177338 41.0897782,31.7861449 41.5223321,32.1723537 L40.4448149,33.2614571 C40.1821929,33.0065593 39.8635754,32.8095958 39.4889528,32.6705606 C39.1143302,32.5315254 38.7184721,32.4620089 38.3013666,32.4620089 C37.8765369,32.4620089 37.4922649,32.5373185 37.148539,32.6879399 C36.8048132,32.8385613 36.5093678,33.047111 36.2621942,33.3135951 C36.0150205,33.5800792 35.82385,33.8909726 35.6886769,34.2462847 C35.5535039,34.6015969 35.4859183,34.9839379 35.4859183,35.3933192 C35.4859183,35.8335973 35.5535039,36.2391105 35.6886769,36.6098709 C35.82385,36.9806314 36.0150205,37.3011799 36.2621942,37.5715261 C36.5093678,37.8418723 36.8048132,38.054284 37.148539,38.2087675 C37.4922649,38.363251 37.8765369,38.4404916 38.3013666,38.4404916 C38.6721271,38.4404916 39.0216408,38.4057334 39.3499183,38.3362158 C39.6781958,38.2666982 39.9697791,38.1585613 40.2246769,38.011802 L40.2246769,36.0769054 L38.5446769,36.0769054 L38.5446769,34.7560778 L41.684539,34.7560778 L41.684539,38.9502847 Z M49.3327228,31.349733 L50.7925849,31.349733 L50.7925849,38.2319399 L54.2800331,38.2319399 L54.2800331,39.5527675 L49.3327228,39.5527675 L49.3327228,31.349733 Z M61.2678031,31.349733 L66.7017342,31.349733 L66.7017342,32.6705606 L62.7276652,32.6705606 L62.7276652,34.6865606 L66.4931824,34.6865606 L66.4931824,36.0073882 L62.7276652,36.0073882 L62.7276652,38.2319399 L66.9102859,38.2319399 L66.9102859,39.5527675 L61.2678031,39.5527675 L61.2678031,31.349733 Z M74.2688145,31.349733 L77.1190214,31.349733 C77.5129544,31.349733 77.8933644,31.3864223 78.2602628,31.459802 C78.6271612,31.5331817 78.9535027,31.6586976 79.2392973,31.8363537 C79.5250918,32.0140098 79.7529516,32.2534556 79.9228835,32.5546985 C80.0928154,32.8559414 80.17778,33.2382824 80.17778,33.701733 C80.17778,34.2964946 80.0136437,34.7946965 79.6853662,35.1963537 C79.3570887,35.5980109 78.887852,35.8413188 78.2776421,35.9262847 L80.455849,39.5527675 L78.6947455,39.5527675 L76.7946076,36.0769054 L75.7286766,36.0769054 L75.7286766,39.5527675 L74.2688145,39.5527675 L74.2688145,31.349733 Z M76.8641249,34.8255951 C77.0726776,34.8255951 77.2812273,34.81594 77.48978,34.7966296 C77.6983328,34.7773191 77.8895033,34.7309748 78.0632973,34.6575951 C78.2370912,34.5842154 78.3780553,34.4722165 78.4861938,34.3215951 C78.5943323,34.1709736 78.6484007,33.960493 78.6484007,33.6901468 C78.6484007,33.4506973 78.5981943,33.2575958 78.49778,33.1108365 C78.3973657,32.9640771 78.2660567,32.8540092 78.103849,32.7806296 C77.9416413,32.7072499 77.7620569,32.6589745 77.5650904,32.635802 C77.3681239,32.6126294 77.1769534,32.6010434 76.9915731,32.6010434 L75.7286766,32.6010434 L75.7286766,34.8255951 L76.8641249,34.8255951 Z M87.4899638,31.349733 L89.4248604,31.349733 L93.3989293,37.4440778 L93.4221017,37.4440778 L93.4221017,31.349733 L94.8819638,31.349733 L94.8819638,39.5527675 L93.0281707,39.5527675 L88.9729983,33.2614571 L88.9498259,33.2614571 L88.9498259,39.5527675 L87.4899638,39.5527675 L87.4899638,31.349733 Z M102.634423,31.349733 L108.068354,31.349733 L108.068354,32.6705606 L104.094286,32.6705606 L104.094286,34.6865606 L107.859803,34.6865606 L107.859803,36.0073882 L104.094286,36.0073882 L104.094286,38.2319399 L108.276906,38.2319399 L108.276906,39.5527675 L102.634423,39.5527675 L102.634423,31.349733 Z" id="MÆGLERNE"></path>
                </g>
            </g>
        </g>
    </g>
</svg>