<?xml version="1.0" encoding="UTF-8"?>
<svg width="395px" height="217px" viewBox="0 0 395 217" version="1.1" xmlns="http://www.w3.org/2000/svg" xmlns:xlink="http://www.w3.org/1999/xlink">
    <!-- Generator: Sketch 41.2 (35397) - http://www.bohemiancoding.com/sketch -->
    <title>Group 4</title>
    <desc>Created with Sketch.</desc>
    <defs></defs>
    <g id="styleguide" stroke="none" stroke-width="1" fill="none" fill-rule="evenodd">
        <g id="Logo" transform="translate(-935.000000, -3230.000000)">
            <g id="Group-4" transform="translate(937.000000, 3232.000000)">
                <g id="logo-black-bg-copy" transform="translate(20.000000, 13.000000)">
                    <rect id="Rectangle" fill="#F4F4F4" x="0" y="0" width="349.019885" height="189.830556"></rect>
                    <g id="Logo-Copy-3" transform="translate(41.943739, 44.025157)" fill="#FFFFFF">
                        <path d="M1.20232095,2.54105444 L39.673977,2.54105444 L39.673977,12.1105031 L11.8093859,12.1105031 L11.8093859,27.723814 L38.074499,27.723814 L38.074499,37.2932626 L11.8093859,37.2932626 L11.8093859,61.9840553 L1.20232095,61.9840553 L1.20232095,2.54105444 Z M46.3244383,32.5202267 C46.3244383,27.7634594 47.110139,23.4404623 48.6815639,19.5511055 C50.2529888,15.6617488 52.4276959,12.3460519 55.2057506,9.6039155 C57.9838053,6.86177908 61.2949724,4.74924649 65.1393511,3.26625434 C68.9837298,1.7832622 73.2068708,1.04177725 77.8089008,1.04177725 C82.4670532,0.985815284 86.7322853,1.67133911 90.6047252,3.09836928 C94.4771651,4.52539946 97.8163928,6.60995148 100.622509,9.3520879 C103.428625,12.0942243 105.617362,15.3959309 107.188787,19.2573067 C108.760212,23.1186824 109.545913,27.4276893 109.545913,32.1844566 C109.545913,36.8292999 108.760212,41.0543651 107.188787,44.8597789 C105.617362,48.6651927 103.428625,51.9389187 100.622509,54.6810551 C97.8163928,57.4231915 94.4771651,59.5637047 90.6047252,61.1026588 C86.7322853,62.6416129 82.4670532,63.439059 77.8089008,63.4950209 C73.2068708,63.4950209 68.9837298,62.753536 65.1393511,61.2705438 C61.2949724,59.7875517 57.9838053,57.6890094 55.2057506,54.9748539 C52.4276959,52.2606985 50.2529888,49.0009628 48.6815639,45.195549 C47.110139,41.3901352 46.3244383,37.16507 46.3244383,32.5202267 Z M57.4366016,31.8486864 C57.4366016,35.0385186 57.9276645,37.9764778 58.909805,40.6626523 C59.8919456,43.3488267 61.2809521,45.6712135 63.0768662,47.6298824 C64.8727804,49.5885513 67.0194268,51.1274823 69.5168699,52.2467217 C72.0143131,53.365961 74.8063565,53.9255723 77.8930839,53.9255723 C80.9798113,53.9255723 83.7858851,53.365961 86.3113894,52.2467217 C88.8368937,51.1274823 90.9975705,49.5885513 92.7934846,47.6298824 C94.5893988,45.6712135 95.9784053,43.3488267 96.9605458,40.6626523 C97.9426864,37.9764778 98.4337493,35.0385186 98.4337493,31.8486864 C98.4337493,28.8827021 97.9426864,26.1126263 96.9605458,23.5383758 C95.9784053,20.9641253 94.5893988,18.7116899 92.7934846,16.781002 C90.9975705,14.8503141 88.8368937,13.3393636 86.3113894,12.2481052 C83.7858851,11.1568469 80.9798113,10.6112259 77.8930839,10.6112259 C74.8063565,10.6112259 72.0143131,11.1568469 69.5168699,12.2481052 C67.0194268,13.3393636 64.8727804,14.8503141 63.0768662,16.781002 C61.2809521,18.7116899 59.8919456,20.9641253 58.909805,23.5383758 C57.9276645,26.1126263 57.4366016,28.8827021 57.4366016,31.8486864 Z M119.757012,33.1109334 L146.072005,2.55274282 L160.383124,2.55274282 L132.518533,33.1109334 L162.235151,61.9840553 L147.33475,61.9840553 L119.757012,33.1109334 Z M215.691391,40.1589971 C215.691391,43.740563 215.074055,46.9723182 213.839364,49.8543595 C212.604673,52.7364008 210.921029,55.1847002 208.78838,57.199331 C206.655732,59.2139619 204.130266,60.7668832 201.211906,61.8581415 C198.293545,62.9493999 195.122682,63.4950209 191.69922,63.4950209 C188.275759,63.4950209 185.104896,62.9493999 182.186535,61.8581415 C179.268175,60.7668832 176.728678,59.2139619 174.567969,57.199331 C172.407259,55.1847002 170.723615,52.7364008 169.516985,49.8543595 C168.310356,46.9723182 167.70705,43.740563 167.70705,40.1589971 L167.70705,2.55274282 L178.314115,2.55274282 L178.314115,39.8232269 C178.314115,41.2782381 178.538601,42.8031789 178.987579,44.3980949 C179.436558,45.993011 180.180167,47.4619906 181.21843,48.8050779 C182.256693,50.1481651 183.631669,51.2533974 185.3434,52.1208079 C187.05513,52.9882184 189.173716,53.4219171 191.69922,53.4219171 C194.224725,53.4219171 196.34331,52.9882184 198.055041,52.1208079 C199.766772,51.2533974 201.141748,50.1481651 202.180011,48.8050779 C203.218274,47.4619906 203.961883,45.993011 204.410862,44.3980949 C204.85984,42.8031789 205.084326,41.2782381 205.084326,39.8232269 L205.084326,2.55274282 L215.691391,2.55274282 L215.691391,40.1589971 Z M257.951284,15.3120077 C256.828838,13.6891106 255.327589,12.4999366 253.447491,11.7444501 C251.567393,10.9889635 249.589111,10.6112259 247.512586,10.6112259 C246.277895,10.6112259 245.085313,10.7511287 243.934806,11.0309385 C242.784298,11.3107484 241.746051,11.7584374 240.820033,12.374019 C239.894015,12.9896007 239.150405,13.7870468 238.589182,14.7663812 C238.027959,15.7457156 237.747351,16.906909 237.747351,18.2499963 C237.747351,20.2646271 238.44887,21.8035581 239.851928,22.8668355 C241.254986,23.9301129 242.994751,24.8534715 245.071277,25.6369391 C247.147803,26.4204066 249.420723,27.1758819 251.890105,27.9033874 C254.359487,28.630893 256.632406,29.6381933 258.708932,30.9253186 C260.785458,32.2124438 262.525223,33.9192582 263.928281,36.045813 C265.331339,38.1723678 266.032858,40.9984048 266.032858,44.5240087 C266.032858,47.7138409 265.443582,50.497907 264.265014,52.8762906 C263.086445,55.2546743 261.501013,57.227304 259.508671,58.7942391 C257.516329,60.3611742 255.201318,61.5363579 252.563569,62.3198255 C249.92582,63.103293 247.147807,63.4950209 244.229447,63.4950209 C240.525374,63.4950209 236.96166,62.8794485 233.538199,61.6482852 C230.114737,60.4171219 227.16836,58.3465602 224.698978,55.4365379 L232.696368,47.7138249 C233.987181,49.6724938 235.684856,51.1974346 237.789443,52.2886929 C239.89403,53.3799513 242.124858,53.9255723 244.481996,53.9255723 C245.716687,53.9255723 246.951359,53.7576889 248.18605,53.4219171 C249.420741,53.0861453 250.543171,52.5824951 251.553372,51.9109515 C252.563574,51.2394079 253.377335,50.3860007 253.994681,49.3507043 C254.612026,48.3154079 254.920695,47.1262339 254.920695,45.7831467 C254.920695,43.60063 254.219176,41.9217961 252.816118,40.7465948 C251.41306,39.5713935 249.673294,38.5780835 247.596769,37.7666349 C245.520243,36.9551864 243.247323,36.1857209 240.777941,35.4582153 C238.308559,34.7307097 236.03564,33.7373997 233.959114,32.4782554 C231.882588,31.2191111 230.142822,29.5402773 228.739764,27.4417035 C227.336707,25.3431297 226.635188,22.531083 226.635188,19.0054791 C226.635188,15.9275708 227.266555,13.2694172 228.529307,11.0309385 C229.792059,8.79245983 231.447642,6.93175232 233.496107,5.44876017 C235.544572,3.96576803 237.887643,2.86053575 240.525392,2.13303017 C243.163141,1.40552459 245.856972,1.04177725 248.606965,1.04177725 C251.749815,1.04177725 254.794405,1.51744684 257.740827,2.46880029 C260.687249,3.42015374 263.338988,4.98706533 265.696126,7.16958207 L257.951284,15.3120077 Z" id="FOKUS-Copy"></path>
                        <path d="M1.20232095,79.1602215 L6.6570169,79.1602215 L12.0264832,93.2112585 L17.4527693,79.1602215 L22.8506455,79.1602215 L22.8506455,99.2169436 L19.4414605,99.2169436 L19.4414605,82.5596659 L19.3846408,82.5596659 L13.2765177,99.2169436 L10.7764487,99.2169436 L4.66832567,82.5596659 L4.61150592,82.5596659 L4.61150592,99.2169436 L1.20232095,99.2169436 L1.20232095,79.1602215 Z M54.7296813,93.9478048 L47.1158349,93.9478048 L43.8771091,99.2169436 L39.5303983,99.2169436 L52.4000716,79.1602215 L66.4913694,79.1602215 L66.4913694,82.3896937 L58.3093255,82.3896937 L58.3093255,87.3188881 L65.9799917,87.3188881 L65.9799917,90.5483603 L58.3093255,90.5483603 L58.3093255,95.9874714 L66.8322879,95.9874714 L66.8322879,99.2169436 L54.7296813,99.2169436 L54.7296813,93.9478048 Z M54.7296813,90.8883048 L54.7296813,82.3896937 L54.3035332,82.3896937 L48.9908866,90.8883048 L54.7296813,90.8883048 Z M102.745526,97.7438511 C100.264384,99.0658638 97.4897145,99.7268603 94.4214326,99.7268603 C92.8683517,99.7268603 91.4431373,99.4766259 90.1457465,98.9761497 C88.8483557,98.4756734 87.7309118,97.7674629 86.7933813,96.8514969 C85.8558507,95.9355309 85.1219363,94.8354439 84.591616,93.5512029 C84.0612957,92.2669619 83.7961395,90.8410981 83.7961395,89.2735687 C83.7961395,87.6682674 84.0612957,86.2093538 84.591616,84.8967839 C85.1219363,83.5842141 85.8558507,82.4652415 86.7933813,81.5398326 C87.7309118,80.6144236 88.8483557,79.9014917 90.1457465,79.4010154 C91.4431373,78.9005392 92.8683517,78.6503048 94.4214326,78.6503048 C95.9555735,78.6503048 97.3949928,78.8344395 98.7397336,79.2027145 C100.084474,79.5709895 101.287147,80.2272646 102.347788,81.1715594 L99.7056693,83.8344576 C99.061709,83.211223 98.2804452,82.7296398 97.3618547,82.3896937 C96.4432641,82.0497475 95.4726031,81.879777 94.4498425,81.879777 C93.4081419,81.879777 92.4658905,82.0639117 91.62306,82.4321867 C90.7802295,82.8004617 90.0557849,83.3103733 89.4497046,83.9619367 C88.8436242,84.6135002 88.374866,85.3736461 88.0434158,86.2423974 C87.7119656,87.1111486 87.546243,88.0459865 87.546243,89.046939 C87.546243,90.1234352 87.7119656,91.1149299 88.0434158,92.0214529 C88.374866,92.927976 88.8436242,93.7117289 89.4497046,94.3727353 C90.0557849,95.0337417 90.7802295,95.5530961 91.62306,95.930814 C92.4658905,96.308532 93.4081419,96.4973881 94.4498425,96.4973881 C95.3589631,96.4973881 96.2159857,96.4124028 97.0209362,96.2424298 C97.8258867,96.0724567 98.5408614,95.8080581 99.1658817,95.4492261 L99.1658817,90.7183325 L95.0464499,90.7183325 L95.0464499,87.4888603 L102.745526,87.4888603 L102.745526,97.7438511 Z M121.4992,79.1602215 L125.078844,79.1602215 L125.078844,95.9874714 L133.630216,95.9874714 L133.630216,99.2169436 L121.4992,99.2169436 L121.4992,79.1602215 Z M150.764527,79.1602215 L164.088758,79.1602215 L164.088758,82.3896937 L154.344171,82.3896937 L154.344171,87.3188881 L163.57738,87.3188881 L163.57738,90.5483603 L154.344171,90.5483603 L154.344171,95.9874714 L164.600136,95.9874714 L164.600136,99.2169436 L150.764527,99.2169436 L150.764527,79.1602215 Z M182.643563,79.1602215 L189.632392,79.1602215 C190.598332,79.1602215 191.531114,79.2499281 192.430765,79.4293441 C193.330415,79.6087602 194.130619,79.9156514 194.831399,80.350027 C195.532179,80.7844026 196.090901,81.3698567 196.507582,82.1064066 C196.924262,82.8429566 197.132599,83.7777945 197.132599,84.9109483 C197.132599,86.3651624 196.73013,87.5832844 195.925179,88.5653511 C195.120229,89.5474177 193.96964,90.1423145 192.473379,90.3500594 L197.814436,99.2169436 L193.496135,99.2169436 L188.836915,90.7183325 L186.223207,90.7183325 L186.223207,99.2169436 L182.643563,99.2169436 L182.643563,79.1602215 Z M189.007375,87.6588326 C189.518755,87.6588326 190.030128,87.6352255 190.541508,87.5880108 C191.052888,87.5407961 191.521646,87.4274824 191.947797,87.2480664 C192.373947,87.0686503 192.719597,86.7948089 192.984757,86.4265339 C193.249917,86.058259 193.382495,85.543626 193.382495,84.8826196 C193.382495,84.2971568 193.259387,83.8250165 193.013167,83.4661844 C192.766947,83.1073524 192.444971,82.8382324 192.047231,82.6588164 C191.649491,82.4794003 191.209142,82.3613653 190.726172,82.3047076 C190.243202,82.2480499 189.774444,82.2197215 189.319883,82.2197215 L186.223207,82.2197215 L186.223207,87.6588326 L189.007375,87.6588326 Z M215.062386,79.1602215 L219.806835,79.1602215 L229.551422,94.0611196 L229.608242,94.0611196 L229.608242,79.1602215 L233.187886,79.1602215 L233.187886,99.2169436 L228.642306,99.2169436 L218.69885,83.8344576 L218.64203,83.8344576 L218.64203,99.2169436 L215.062386,99.2169436 L215.062386,79.1602215 Z M252.197249,79.1602215 L265.52148,79.1602215 L265.52148,82.3896937 L255.776893,82.3896937 L255.776893,87.3188881 L265.010102,87.3188881 L265.010102,90.5483603 L255.776893,90.5483603 L255.776893,95.9874714 L266.032858,95.9874714 L266.032858,99.2169436 L252.197249,99.2169436 L252.197249,79.1602215 Z" id="MÆGLERNE"></path>
                    </g>
                </g>
                <path d="M390.039752,0.340260229 L0.388347965,212.758918" id="Line-Copy-16" stroke="#E5380E" stroke-width="3" stroke-linecap="square"></path>
                <path d="M0.388347965,0.340260229 L390.039752,212.758918" id="Line-Copy-17" stroke="#E5380E" stroke-width="3" stroke-linecap="square"></path>
            </g>
        </g>
    </g>
</svg>