<?xml version="1.0" encoding="UTF-8"?>
<svg width="398px" height="150px" viewBox="0 0 398 150" version="1.1" xmlns="http://www.w3.org/2000/svg" xmlns:xlink="http://www.w3.org/1999/xlink">
    <!-- Generator: Sketch 41.2 (35397) - http://www.bohemiancoding.com/sketch -->
    <title>logo</title>
    <desc>Created with Sketch.</desc>
    <defs></defs>
    <g id="styleguide" stroke="none" stroke-width="1" fill="none" fill-rule="evenodd">
        <g id="Logo" transform="translate(-499.000000, -488.000000)" fill="#4370F7">
            <g id="logo" transform="translate(499.000000, 488.000000)">
                <path d="M0.159297658,2.80473072 L57.9065738,2.80473072 L57.9065738,17.2099593 L16.0808661,17.2099593 L16.0808661,40.7132271 L55.5057023,40.7132271 L55.5057023,55.1184557 L16.0808661,55.1184557 L16.0808661,92.286377 L0.159297658,92.286377 L0.159297658,2.80473072 Z M67.8891445,47.9334363 C67.8891445,40.7729068 69.0685081,34.2653466 71.4272708,28.4105607 C73.7860335,22.5557748 77.0503436,17.5645393 81.220299,13.4367046 C85.3902545,9.30886996 90.3604298,6.12880012 96.1309742,3.89639973 C101.901519,1.66399934 108.240598,0.547815886 115.148403,0.547815886 C122.14045,0.463574362 128.54271,1.49551755 134.355375,3.64367642 C140.16804,5.79183529 145.180335,8.929785 149.392412,13.0576197 C153.604488,17.1854544 156.889858,22.1556297 159.248621,27.9682949 C161.607383,33.7809601 162.786747,40.2674601 162.786747,47.4279897 C162.786747,54.4200362 161.607383,60.7801759 159.248621,66.5085995 C156.889858,72.2370232 153.604488,77.1650784 149.392412,81.2929131 C145.180335,85.4207478 140.16804,88.6429378 134.355375,90.9595797 C128.54271,93.2762216 122.14045,94.4766453 115.148403,94.5608868 C108.240598,94.5608868 101.901519,93.4447034 96.1309742,91.212303 C90.3604298,88.9799026 85.3902545,85.8208928 81.220299,81.7351789 C77.0503436,77.649465 73.7860335,72.7424698 71.4272708,67.0140461 C69.0685081,61.2856225 67.8891445,54.9254828 67.8891445,47.9334363 Z M84.5688829,46.9225431 C84.5688829,51.72431 85.3059851,56.1469236 86.7802118,60.1905168 C88.2544385,64.23411 90.3393849,67.7300808 93.0351137,70.6785341 C95.7308425,73.6269875 98.9530325,75.9435946 102.70178,77.6284251 C106.450528,79.3132556 110.641481,80.1556582 115.274765,80.1556582 C119.908049,80.1556582 124.120062,79.3132556 127.91093,77.6284251 C131.701799,75.9435946 134.945049,73.6269875 137.640778,70.6785341 C140.336507,67.7300808 142.421453,64.23411 143.89568,60.1905168 C145.369906,56.1469236 146.107009,51.72431 146.107009,46.9225431 C146.107009,42.4577423 145.369906,38.2878494 143.89568,34.4127393 C142.421453,30.5376292 140.336507,27.1469587 137.640778,24.2406261 C134.945049,21.3342935 131.701799,19.0598065 127.91093,17.4170968 C124.120062,15.774387 119.908049,14.9530445 115.274765,14.9530445 C110.641481,14.9530445 106.450528,15.774387 102.70178,17.4170968 C98.9530325,19.0598065 95.7308425,21.3342935 93.0351137,24.2406261 C90.3393849,27.1469587 88.2544385,30.5376292 86.7802118,34.4127393 C85.3059851,38.2878494 84.5688829,42.4577423 84.5688829,46.9225431 Z M178.113958,48.822648 L217.613665,2.82232567 L239.095146,2.82232567 L197.269438,48.822648 L241.875103,92.286377 L219.50909,92.286377 L178.113958,48.822648 Z M322.114753,59.4323469 C322.114753,64.8238044 321.18811,69.6886795 319.334797,74.027118 C317.481483,78.3655565 314.954275,82.0510679 311.753097,85.0837627 C308.55192,88.1164576 304.761108,90.4541248 300.380549,92.0968346 C295.999989,93.7395443 291.240415,94.5608868 286.101682,94.5608868 C280.962949,94.5608868 276.203374,93.7395443 271.822815,92.0968346 C267.442255,90.4541248 263.630384,88.1164576 260.387085,85.0837627 C257.143786,82.0510679 254.616578,78.3655565 252.805386,74.027118 C250.994193,69.6886795 250.08861,64.8238044 250.08861,59.4323469 L250.08861,2.82232567 L266.010179,2.82232567 L266.010179,58.9269003 C266.010179,61.1171799 266.34714,63.412727 267.021072,65.8136104 C267.695004,68.2144939 268.811187,70.4258007 270.369656,72.4475973 C271.928124,74.4693939 273.99201,76.133139 276.561377,77.4388826 C279.130743,78.7446263 282.310813,79.3974883 286.101682,79.3974883 C289.89255,79.3974883 293.07262,78.7446263 295.641987,77.4388826 C298.211353,76.133139 300.275239,74.4693939 301.833708,72.4475973 C303.392176,70.4258007 304.508359,68.2144939 305.182291,65.8136104 C305.856224,63.412727 306.193185,61.1171799 306.193185,58.9269003 L306.193185,2.82232567 L322.114753,2.82232567 L322.114753,59.4323469 Z M385.548304,22.0292971 C383.863473,19.5862929 381.610046,17.7961874 378.787955,16.6589268 C375.965864,15.5216663 372.996395,14.9530445 369.879459,14.9530445 C368.026145,14.9530445 366.236039,15.1636451 364.509088,15.5848528 C362.782137,16.0060604 361.223692,16.6799825 359.833707,17.6066392 C358.443722,18.533296 357.327538,19.7337197 356.485123,21.2079464 C355.642708,22.6821731 355.221507,24.4301585 355.221507,26.4519551 C355.221507,29.4846499 356.27451,31.8012571 358.380548,33.4018461 C360.486586,35.002435 363.098034,36.3923993 366.214971,37.5717807 C369.331907,38.751162 372.743637,39.8884055 376.450265,40.9835453 C380.156892,42.0786851 383.568622,43.5950098 386.685559,45.5325649 C389.802495,47.4701199 392.413943,50.0394479 394.519981,53.2406258 C396.626019,56.4418037 397.679023,60.6959369 397.679023,66.0031529 C397.679023,70.8049198 396.7945,74.9958728 395.025428,78.5761375 C393.256356,82.1564023 390.876568,85.1258715 387.885994,87.4846342 C384.89542,89.8433969 381.420509,91.6124423 377.461158,92.7918237 C373.501806,93.971205 369.331913,94.5608868 364.951354,94.5608868 C359.391413,94.5608868 354.042157,93.634244 348.903424,91.7809304 C343.764691,89.9276169 339.342077,86.8107273 335.63545,82.430168 L347.639807,70.8048958 C349.577362,73.7533491 352.12563,76.0488962 355.284687,77.691606 C358.443745,79.3343157 361.792295,80.1556582 365.330439,80.1556582 C367.183752,80.1556582 369.037038,79.9029374 370.890352,79.3974883 C372.743665,78.8920391 374.428471,78.1338768 375.944818,77.1229785 C377.461165,76.1120802 378.682649,74.8274162 379.609306,73.268948 C380.535963,71.7104798 380.999284,69.9203743 380.999284,67.8985777 C380.999284,64.6131583 379.946281,62.0859505 377.840243,60.3168785 C375.734205,58.5478065 373.122757,57.0525418 370.00582,55.8310397 C366.888884,54.6095376 363.477153,53.451234 359.770526,52.3560942 C356.063899,51.2609544 352.652169,49.7656898 349.535232,47.8702555 C346.418296,45.9748212 343.806848,43.4476134 341.70081,40.2885562 C339.594771,37.1294991 338.541768,32.896426 338.541768,27.5892099 C338.541768,22.9559261 339.489471,18.9545137 341.384905,15.5848528 C343.28034,12.2151918 345.765427,9.41420314 348.840243,7.18180275 C351.915059,4.94940236 355.43209,3.28565721 359.391441,2.19051739 C363.350793,1.09537758 367.394325,0.547815886 371.52216,0.547815886 C376.239685,0.547815886 380.80972,1.2638581 385.2324,2.69596401 C389.65508,4.12806992 393.635432,6.48679722 397.173576,9.77221666 L385.548304,22.0292971 Z" id="FOKUS-Copy"></path>
                <path d="M0.159297658,118.142266 L8.34698348,118.142266 L16.4067367,139.293788 L24.5517783,118.142266 L32.6541758,118.142266 L32.6541758,148.334357 L27.5368721,148.334357 L27.5368721,123.259569 L27.4515837,123.259569 L18.2830814,148.334357 L14.5303921,148.334357 L5.36188969,123.259569 L5.2766013,123.259569 L5.2766013,148.334357 L0.159297658,148.334357 L0.159297658,118.142266 Z M80.5057026,140.402537 L69.0770578,140.402537 L64.2156194,148.334357 L57.6910572,148.334357 L77.0088785,118.142266 L98.1604002,118.142266 L98.1604002,123.003704 L85.8788714,123.003704 L85.8788714,130.423795 L97.3928046,130.423795 L97.3928046,135.285233 L85.8788714,135.285233 L85.8788714,143.472919 L98.6721305,143.472919 L98.6721305,148.334357 L80.5057026,148.334357 L80.5057026,140.402537 Z M80.5057026,135.796963 L80.5057026,123.003704 L79.8660397,123.003704 L71.8915748,135.796963 L80.5057026,135.796963 Z M152.579133,146.116859 C148.854855,148.106932 144.68998,149.101953 140.084384,149.101953 C137.753156,149.101953 135.61386,148.725266 133.666432,147.971882 C131.719004,147.218497 130.041682,146.152403 128.634417,144.773567 C127.227151,143.394731 126.12552,141.738731 125.329491,139.805518 C124.533462,137.872305 124.135454,135.725902 124.135454,133.366244 C124.135454,130.949728 124.533462,128.753573 125.329491,126.777716 C126.12552,124.801858 127.227151,123.117429 128.634417,121.724378 C130.041682,120.331328 131.719004,119.258126 133.666432,118.504742 C135.61386,117.751357 137.753156,117.37467 140.084384,117.37467 C142.387182,117.37467 144.547799,117.651855 146.566302,118.206232 C148.584804,118.760609 150.390057,119.748523 151.982115,121.170004 L148.016204,125.178558 C147.049598,124.240381 145.876894,123.515437 144.498058,123.003704 C143.119222,122.491971 141.662227,122.236109 140.127028,122.236109 C138.563399,122.236109 137.149048,122.513293 135.88393,123.067671 C134.618813,123.622048 133.531397,124.389636 132.621649,125.370457 C131.711902,126.351279 131.00828,127.495553 130.510761,128.803315 C130.013243,130.111077 129.764488,131.518321 129.764488,133.025091 C129.764488,134.645578 130.013243,136.13811 130.510761,137.502731 C131.00828,138.867352 131.711902,140.047163 132.621649,141.0422 C133.531397,142.037236 134.618813,142.819038 135.88393,143.38763 C137.149048,143.956223 138.563399,144.240514 140.127028,144.240514 C141.491649,144.240514 142.778069,144.112583 143.986328,143.856717 C145.194586,143.60085 146.267788,143.202842 147.205965,142.662679 L147.205965,135.541098 L141.022556,135.541098 L141.022556,130.67966 L152.579133,130.67966 L152.579133,146.116859 Z M180.729041,118.142266 L186.10221,118.142266 L186.10221,143.472919 L198.938113,143.472919 L198.938113,148.334357 L180.729041,148.334357 L180.729041,118.142266 Z M224.657302,118.142266 L244.65743,118.142266 L244.65743,123.003704 L230.030471,123.003704 L230.030471,130.423795 L243.889835,130.423795 L243.889835,135.285233 L230.030471,135.285233 L230.030471,143.472919 L245.425026,143.472919 L245.425026,148.334357 L224.657302,148.334357 L224.657302,118.142266 Z M272.508829,118.142266 L282.999301,118.142266 C284.449211,118.142266 285.849348,118.277304 287.199755,118.547386 C288.550161,118.817467 289.751294,119.279441 290.803189,119.933322 C291.855085,120.587203 292.693746,121.468508 293.319197,122.577262 C293.944648,123.686017 294.257369,125.093261 294.257369,126.799038 C294.257369,128.988118 293.653249,130.8218 292.444991,132.300139 C291.236733,133.778479 289.50966,134.673998 287.263721,134.986724 L295.28083,148.334357 L288.798912,148.334357 L281.805264,135.541098 L277.881998,135.541098 L277.881998,148.334357 L272.508829,148.334357 L272.508829,118.142266 Z M282.061129,130.935525 C282.828728,130.935525 283.596316,130.899988 284.363915,130.828914 C285.131515,130.75784 285.835137,130.587265 286.474803,130.317184 C287.114469,130.047103 287.633302,129.63488 288.031316,129.080502 C288.429331,128.526125 288.628335,127.75143 288.628335,126.756394 C288.628335,125.875076 288.443546,125.164346 288.073961,124.624184 C287.704376,124.084021 287.22108,123.678905 286.624058,123.408824 C286.027036,123.138743 285.366058,122.961061 284.641103,122.875772 C283.916148,122.790483 283.212526,122.747839 282.530215,122.747839 L277.881998,122.747839 L277.881998,130.935525 L282.061129,130.935525 Z M321.170595,118.142266 L328.292176,118.142266 L342.919136,140.573113 L343.004424,140.573113 L343.004424,118.142266 L348.377593,118.142266 L348.377593,148.334357 L341.554521,148.334357 L326.629053,125.178558 L326.543764,125.178558 L326.543764,148.334357 L321.170595,148.334357 L321.170595,118.142266 Z M376.911299,118.142266 L396.911427,118.142266 L396.911427,123.003704 L382.284467,123.003704 L382.284467,130.423795 L396.143831,130.423795 L396.143831,135.285233 L382.284467,135.285233 L382.284467,143.472919 L397.679023,143.472919 L397.679023,148.334357 L376.911299,148.334357 L376.911299,118.142266 Z" id="MÆGLERNE"></path>
            </g>
        </g>
    </g>
</svg>