<?xml version="1.0" encoding="UTF-8"?>
<svg width="398px" height="226px" viewBox="0 0 398 226" version="1.1" xmlns="http://www.w3.org/2000/svg" xmlns:xlink="http://www.w3.org/1999/xlink">
    <!-- Generator: Sketch 41.2 (35397) - http://www.bohemiancoding.com/sketch -->
    <title>respektafstand logo</title>
    <desc>Created with Sketch.</desc>
    <defs></defs>
    <g id="styleguide" stroke="none" stroke-width="1" fill="none" fill-rule="evenodd">
        <g id="Logo" transform="translate(-500.000000, -1000.000000)">
            <g id="respektafstand-logo" transform="translate(499.000000, 999.000000)">
                <path d="M64.3223862,64.1769865 L103.796861,64.1769865 L103.796861,74.0240108 L75.2059394,74.0240108 L75.2059394,90.0902084 L102.15569,90.0902084 L102.15569,99.9372327 L75.2059394,99.9372327 L75.2059394,125.344218 L64.3223862,125.344218 L64.3223862,64.1769865 Z M110.620676,95.025748 C110.620676,90.1310038 111.426857,85.6826119 113.039243,81.6804387 C114.65163,77.6782655 116.883024,74.2663921 119.733492,71.444716 C122.583961,68.62304 125.981438,66.4492303 129.926026,64.9232218 C133.870614,63.3972134 138.203838,62.6342206 142.925826,62.6342206 C147.7054,62.5766353 152.081811,63.2820438 156.055192,64.750467 C160.028572,66.2188903 163.454842,68.3639078 166.334103,71.1855838 C169.213364,74.0072599 171.459155,77.4047372 173.071541,81.3781178 C174.683927,85.3514983 175.490108,89.7854942 175.490108,94.6802384 C175.490108,99.4598121 174.683927,103.807431 173.071541,107.723227 C171.459155,111.639022 169.213364,115.007707 166.334103,117.829383 C163.454842,120.651059 160.028572,122.853661 156.055192,124.437255 C152.081811,126.020849 147.7054,126.841426 142.925826,126.899011 C138.203838,126.899011 133.870614,126.136018 129.926026,124.61001 C125.981438,123.084001 122.583961,120.924588 119.733492,118.131704 C116.883024,115.338821 114.65163,111.984532 113.039243,108.068736 C111.426857,104.152941 110.620676,99.8053217 110.620676,95.025748 Z M122.022494,94.3347287 C122.022494,97.6170866 122.526357,100.640266 123.534098,103.404356 C124.54184,106.168447 125.967053,108.558198 127.80978,110.573681 C129.652507,112.589164 131.855109,114.172734 134.417652,115.324438 C136.980194,116.476143 139.845016,117.051987 143.012203,117.051987 C146.179391,117.051987 149.058609,116.476143 151.649944,115.324438 C154.241279,114.172734 156.458277,112.589164 158.301004,110.573681 C160.143732,108.558198 161.568945,106.168447 162.576686,103.404356 C163.584427,100.640266 164.088291,97.6170866 164.088291,94.3347287 C164.088291,91.2827118 163.584427,88.4322859 162.576686,85.7833655 C161.568945,83.1344451 160.143732,80.8166746 158.301004,78.8299843 C156.458277,76.843294 154.241279,75.2885162 151.649944,74.1656043 C149.058609,73.0426924 146.179391,72.4812449 143.012203,72.4812449 C139.845016,72.4812449 136.980194,73.0426924 134.417652,74.1656043 C131.855109,75.2885162 129.652507,76.843294 127.80978,78.8299843 C125.967053,80.8166746 124.54184,83.1344451 123.534098,85.7833655 C122.526357,88.4322859 122.022494,91.2827118 122.022494,94.3347287 Z M185.967375,95.633589 L212.968305,64.1890139 L227.652464,64.1890139 L199.061543,95.633589 L229.552767,125.344218 L214.263966,125.344218 L185.967375,95.633589 Z M284.40242,102.886092 C284.40242,106.571546 283.768992,109.897043 282.502117,112.862682 C281.235242,115.828322 279.507712,118.347637 277.319473,120.420705 C275.131234,122.493774 272.539938,124.09174 269.545506,125.214652 C266.551075,126.337563 263.297558,126.899011 259.784859,126.899011 C256.272161,126.899011 253.018644,126.337563 250.024213,125.214652 C247.029781,124.09174 244.424088,122.493774 242.207057,120.420705 C239.990026,118.347637 238.262495,115.828322 237.024413,112.862682 C235.786331,109.897043 235.167299,106.571546 235.167299,102.886092 L235.167299,64.1890139 L246.050852,64.1890139 L246.050852,102.540582 C246.050852,104.037798 246.281189,105.606972 246.741871,107.248151 C247.202553,108.88933 247.965546,110.400919 249.030872,111.782965 C250.096199,113.16501 251.507016,114.302301 253.263365,115.194872 C255.019715,116.087443 257.193524,116.533722 259.784859,116.533722 C262.376195,116.533722 264.550004,116.087443 266.306354,115.194872 C268.062703,114.302301 269.47352,113.16501 270.538847,111.782965 C271.604173,110.400919 272.367166,108.88933 272.827848,107.248151 C273.28853,105.606972 273.518867,104.037798 273.518867,102.540582 L273.518867,64.1890139 L284.40242,64.1890139 L284.40242,102.886092 Z M327.763878,77.3183797 C326.612174,75.6484081 325.071792,74.4247404 323.142687,73.6473399 C321.213582,72.8699393 319.183733,72.4812449 317.05308,72.4812449 C315.786205,72.4812449 314.562537,72.6252058 313.38204,72.9131319 C312.201543,73.2010581 311.136232,73.661733 310.186076,74.2951704 C309.23592,74.9286079 308.472927,75.7491851 307.897075,76.7569265 C307.321223,77.764668 307.033301,78.9595435 307.033301,80.3415889 C307.033301,82.414657 307.753105,83.998227 309.192736,85.0923462 C310.632367,86.1864655 312.417482,87.1366075 314.548135,87.9428007 C316.678788,88.7489938 319.010955,89.5263827 321.544705,90.2749906 C324.078455,91.0235986 326.410622,92.0601171 328.541275,93.3845773 C330.671928,94.7090374 332.457044,96.4653605 333.896674,98.6535991 C335.336305,100.841838 336.056109,103.749848 336.056109,107.377717 C336.056109,110.660075 335.451474,113.524897 334.242184,115.972269 C333.032894,118.419641 331.406136,120.44949 329.36186,122.061876 C327.317585,123.674263 324.94223,124.883534 322.235724,125.689727 C319.529219,126.49592 316.678793,126.899011 313.684361,126.899011 C309.883736,126.899011 306.227129,126.265583 302.71443,124.998708 C299.201732,123.731833 296.178553,121.601212 293.644803,118.60678 L301.850656,110.660059 C303.175117,112.675541 304.917044,114.244715 307.076489,115.367627 C309.235935,116.490539 311.524914,117.051987 313.943493,117.051987 C315.210368,117.051987 316.477224,116.879234 317.744099,116.533722 C319.010974,116.188211 320.162661,115.669952 321.199195,114.978929 C322.235729,114.287906 323.070703,113.409745 323.70414,112.344418 C324.337578,111.279091 324.654292,110.055424 324.654292,108.673378 C324.654292,106.427554 323.934487,104.700024 322.494857,103.490734 C321.055226,102.281444 319.270111,101.259322 317.139457,100.424336 C315.008804,99.5893501 312.676637,98.7975651 310.142887,98.0489572 C307.609137,97.3003493 305.276971,96.2782269 303.146317,94.9825593 C301.015664,93.6868917 299.230549,91.9593609 297.790918,89.7999149 C296.351288,87.6404689 295.631483,84.7468548 295.631483,81.1189855 C295.631483,77.9517981 296.279307,75.216541 297.574975,72.9131319 C298.870642,70.6097229 300.569381,68.6950429 302.671242,67.1690344 C304.773102,65.6430259 307.17725,64.5057348 309.883755,63.7571269 C312.590261,63.0085189 315.35431,62.6342206 318.175986,62.6342206 C321.400759,62.6342206 324.52471,63.1236876 327.547935,64.1026365 C330.571159,65.0815853 333.29202,66.6939474 335.7106,68.9397712 L327.763878,77.3183797 Z" id="FOKUS-Copy" fill="#4370F7"></path>
                <path d="M64.3223862,143.018603 L69.9192666,143.018603 L75.4286957,157.477211 L80.9964257,143.018603 L86.5350052,143.018603 L86.5350052,163.6571 L83.036955,163.6571 L83.036955,146.516654 L82.9786542,146.516654 L76.7113141,163.6571 L74.1460773,163.6571 L67.8787373,146.516654 L67.8204364,146.516654 L67.8204364,163.6571 L64.3223862,163.6571 L64.3223862,143.018603 Z M119.245014,158.235122 L111.432701,158.235122 L108.109554,163.6571 L103.64954,163.6571 L116.854679,143.018603 L131.313287,143.018603 L131.313287,146.341751 L122.917966,146.341751 L122.917966,151.413924 L130.788579,151.413924 L130.788579,154.737072 L122.917966,154.737072 L122.917966,160.333952 L131.663092,160.333952 L131.663092,163.6571 L119.245014,163.6571 L119.245014,158.235122 Z M119.245014,155.086877 L119.245014,146.341751 L118.807757,146.341751 L113.356629,155.086877 L119.245014,155.086877 Z M168.51246,162.141278 C165.966644,163.501638 163.119648,164.181807 159.971387,164.181807 C158.377823,164.181807 156.915458,163.924314 155.584249,163.409321 C154.25304,162.894328 153.106468,162.165575 152.1445,161.22304 C151.182531,160.280505 150.429486,159.148508 149.885342,157.827016 C149.341198,156.505524 149.069131,155.038301 149.069131,153.425303 C149.069131,151.773437 149.341198,150.272206 149.885342,148.921563 C150.429486,147.57092 151.182531,146.41949 152.1445,145.467238 C153.106468,144.514987 154.25304,143.781375 155.584249,143.266382 C156.915458,142.751389 158.377823,142.493896 159.971387,142.493896 C161.545518,142.493896 163.022457,142.683372 164.402251,143.062329 C165.782044,143.441286 167.016066,144.116598 168.104354,145.088283 L165.393365,147.828422 C164.732619,147.18711 163.93099,146.691558 162.988456,146.341751 C162.045921,145.991944 161.049958,145.817044 160.000538,145.817044 C158.931684,145.817044 157.964871,146.006519 157.100071,146.385477 C156.235271,146.764434 155.491943,147.289136 154.870064,147.959599 C154.248185,148.630062 153.767208,149.412257 153.427118,150.306208 C153.087028,151.200159 152.916986,152.162113 152.916986,153.192099 C152.916986,154.299821 153.087028,155.320075 153.427118,156.252893 C153.767208,157.185711 154.248185,157.992198 154.870064,158.672378 C155.491943,159.352558 156.235271,159.886977 157.100071,160.275651 C157.964871,160.664325 158.931684,160.85866 160.000538,160.85866 C160.933356,160.85866 161.812718,160.771209 162.638651,160.596306 C163.464583,160.421402 164.198195,160.149335 164.839507,159.780094 L164.839507,154.911974 L160.612696,154.911974 L160.612696,151.588826 L168.51246,151.588826 L168.51246,162.141278 Z M187.754975,143.018603 L191.427928,143.018603 L191.427928,160.333952 L200.202204,160.333952 L200.202204,163.6571 L187.754975,163.6571 L187.754975,143.018603 Z M217.783145,143.018603 L231.454691,143.018603 L231.454691,146.341751 L221.456098,146.341751 L221.456098,151.413924 L230.929984,151.413924 L230.929984,154.737072 L221.456098,154.737072 L221.456098,160.333952 L231.979399,160.333952 L231.979399,163.6571 L217.783145,163.6571 L217.783145,143.018603 Z M250.493153,143.018603 L257.664156,143.018603 C258.655275,143.018603 259.612371,143.110912 260.535472,143.295532 C261.458574,143.480153 262.279636,143.795946 262.998683,144.242921 C263.71773,144.689896 264.291016,145.292332 264.718558,146.050247 C265.146099,146.808162 265.359867,147.770116 265.359867,148.936138 C265.359867,150.432534 264.946907,151.685989 264.120974,152.696542 C263.295041,153.707095 262.114461,154.319248 260.579198,154.533019 L266.059477,163.6571 L261.628613,163.6571 L256.847944,154.911974 L254.166106,154.911974 L254.166106,163.6571 L250.493153,163.6571 L250.493153,143.018603 Z M257.022847,151.763729 C257.547557,151.763729 258.072259,151.739437 258.59697,151.690853 C259.12168,151.642269 259.602657,151.525668 260.039915,151.341048 C260.477174,151.156428 260.831834,150.874643 261.103906,150.495686 C261.375978,150.116728 261.512011,149.587168 261.512011,148.906988 C261.512011,148.304543 261.385694,147.818707 261.133056,147.449467 C260.880418,147.080226 260.55005,146.8033 260.141942,146.61868 C259.733834,146.43406 259.282007,146.312601 258.786447,146.2543 C258.290888,146.195999 257.809911,146.166849 257.343502,146.166849 L254.166106,146.166849 L254.166106,151.763729 L257.022847,151.763729 Z M283.75702,143.018603 L288.625139,143.018603 L298.623733,158.351724 L298.682034,158.351724 L298.682034,143.018603 L302.354987,143.018603 L302.354987,163.6571 L297.69092,163.6571 L287.488273,147.828422 L287.429972,147.828422 L287.429972,163.6571 L283.75702,163.6571 L283.75702,143.018603 Z M321.859855,143.018603 L335.531402,143.018603 L335.531402,146.341751 L325.532808,146.341751 L325.532808,151.413924 L335.006694,151.413924 L335.006694,154.737072 L325.532808,154.737072 L325.532808,160.333952 L336.056109,160.333952 L336.056109,163.6571 L321.859855,163.6571 L321.859855,143.018603 Z" id="MÆGLERNE" fill="#4370F7"></path>
                <polygon id="Path-Copy" fill="#000000" transform="translate(314.263413, 32.846790) scale(-1, 1) translate(-314.263413, -32.846790) " points="292.470717 33.7137634 319.471647 2.26918829 334.155806 2.26918829 305.564885 33.7137634 336.056109 63.424392 320.767308 63.424392"></polygon>
                <polygon id="Path-Copy-3" fill="#000000" points="64.3223862 196.024228 91.3233167 164.579653 106.007476 164.579653 77.4165542 196.024228 107.907779 225.734857 92.6189778 225.734857"></polygon>
                <polygon id="Path-Copy-2" fill="#000000" transform="translate(367.313622, 85.963366) rotate(90.000000) translate(-367.313622, -85.963366) " points="345.520926 86.8303395 372.521856 55.3857644 387.206016 55.3857644 358.615094 86.8303395 389.106318 116.540968 373.817518 116.540968"></polygon>
                <polygon id="Path-Copy-4" fill="#000000" transform="translate(32.895108, 143.796623) scale(1, -1) rotate(90.000000) translate(-32.895108, -143.796623) " points="11.1024122 144.663597 38.1033427 113.219021 52.7875018 113.219021 24.1965802 144.663597 54.6878047 174.374225 39.3990038 174.374225"></polygon>
                <path d="M63.8772044,2.74075047 L63.8772044,225.935078" id="Line" stroke="#FF9585" stroke-linecap="round" stroke-linejoin="round" stroke-dasharray="1,3"></path>
                <path d="M1.92416878,2.74075047 L1.92416878,225.935077" id="Line-Copy-7" stroke="#FF9585" stroke-linecap="round" stroke-linejoin="round" stroke-dasharray="1,3"></path>
                <path d="M336.443962,2.74108958 L336.443962,223.333176" id="Line-Copy" stroke="#FF9585" stroke-linecap="round" stroke-linejoin="round" stroke-dasharray="1,3"></path>
                <path d="M398.290994,2.74075047 L398.290994,223.333176" id="Line-Copy-6" stroke="#FF9585" stroke-linecap="round" stroke-linejoin="round" stroke-dasharray="1,3"></path>
                <path d="M394.877703,164.114906 L1.99847837,164.114906" id="Line-Copy-2" stroke="#FF9585" stroke-linecap="round" stroke-linejoin="round" stroke-dasharray="1,3"></path>
                <path d="M396.18162,226.13583 L1.99842725,226.13583" id="Line-Copy-5" stroke="#FF9585" stroke-linecap="round" stroke-linejoin="round" stroke-dasharray="1,3"></path>
                <path d="M396.181636,63.8000237 L1.99847691,63.8000237" id="Line-Copy-3" stroke="#FF9585" stroke-linecap="round" stroke-linejoin="round" stroke-dasharray="1,3"></path>
                <path d="M396.181579,1.79897116 L1.99844976,1.79897116" id="Line-Copy-4" stroke="#FF9585" stroke-linecap="round" stroke-linejoin="round" stroke-dasharray="1,3"></path>
            </g>
        </g>
    </g>
</svg>