<?xml version="1.0" encoding="UTF-8"?>
<svg width="399px" height="400px" viewBox="0 0 399 400" version="1.1" xmlns="http://www.w3.org/2000/svg" xmlns:xlink="http://www.w3.org/1999/xlink">
    <!-- Generator: Sketch 41.2 (35397) - http://www.bohemiancoding.com/sketch -->
    <title>placement of the logo</title>
    <desc>Created with Sketch.</desc>
    <defs></defs>
    <g id="styleguide" stroke="none" stroke-width="1" fill="none" fill-rule="evenodd">
        <g id="Logo" transform="translate(-499.000000, -1570.000000)">
            <g id="placement-of-the-logo" transform="translate(499.000000, 1570.000000)">
                <rect id="Rectangle-2" fill="#F7F7F7" x="0.854217997" y="0.821763766" width="398.00995" height="399.002494"></rect>
                <g id="respektafstand-logo-copy-2" transform="translate(1.246313, 0.843831)">
                    <path d="M21.6500946,21.6550231 L34.9366991,21.6550231 L34.9366991,24.9776711 L25.3133597,24.9776711 L25.3133597,30.3988337 L34.384302,30.3988337 L34.384302,33.7214818 L25.3133597,33.7214818 L25.3133597,42.2944746 L21.6500946,42.2944746 L21.6500946,21.6550231 Z M37.2335082,32.0642162 C37.2335082,30.4125992 37.5048585,28.9115934 38.0475672,27.5611537 C38.5902758,26.2107139 39.3413346,25.059457 40.300766,24.1073484 C41.2601974,23.1552399 42.4037449,22.4217386 43.7314429,21.9068228 C45.0591408,21.3919069 46.5176485,21.1344528 48.1070096,21.1344528 C49.7157531,21.115022 51.1887974,21.3530456 52.5261866,21.8485307 C53.8635758,22.3440158 55.0168144,23.0678017 55.985937,24.0199103 C56.9550596,24.9720189 57.7109639,26.1184182 58.2536726,27.4591425 C58.7963813,28.7998669 59.0677315,30.2960151 59.0677315,31.947632 C59.0677315,33.5603874 58.7963813,35.0273898 58.2536726,36.3486834 C57.7109639,37.6699769 56.9550596,38.806661 55.985937,39.7587695 C55.0168144,40.7108781 53.8635758,41.4540946 52.5261866,41.9884413 C51.1887974,42.5227879 49.7157531,42.7996725 48.1070096,42.8191033 C46.5176485,42.8191033 45.0591408,42.5616492 43.7314429,42.0467333 C42.4037449,41.5318175 41.2601974,40.8031739 40.300766,39.8607807 C39.3413346,38.9183875 38.5902758,37.7865611 38.0475672,36.4652675 C37.5048585,35.143974 37.2335082,33.6769715 37.2335082,32.0642162 Z M41.0712146,31.8310479 C41.0712146,32.9386028 41.2408085,33.9587038 41.5800014,34.8913816 C41.9191943,35.8240594 42.3989028,36.630425 43.0191413,37.3105026 C43.6393798,37.9905801 44.3807475,38.5249188 45.2432666,38.9135345 C46.1057857,39.3021503 47.0700482,39.4964552 48.1360831,39.4964552 C49.202118,39.4964552 50.1712261,39.3021503 51.0434364,38.9135345 C51.9156468,38.5249188 52.66186,37.9905801 53.2820985,37.3105026 C53.9023369,36.630425 54.3820454,35.8240594 54.7212383,34.8913816 C55.0604312,33.9587038 55.2300252,32.9386028 55.2300252,31.8310479 C55.2300252,30.8012161 55.0604312,29.8394066 54.7212383,28.9455903 C54.3820454,28.0517741 53.9023369,27.2696967 53.2820985,26.5993345 C52.66186,25.9289723 51.9156468,25.4043489 51.0434364,25.0254486 C50.1712261,24.6465482 49.202118,24.4571009 48.1360831,24.4571009 C47.0700482,24.4571009 46.1057857,24.6465482 45.2432666,25.0254486 C44.3807475,25.4043489 43.6393798,25.9289723 43.0191413,26.5993345 C42.3989028,27.2696967 41.9191943,28.0517741 41.5800014,28.9455903 C41.2408085,29.8394066 41.0712146,30.8012161 41.0712146,31.8310479 Z M62.5942457,32.2693179 L71.6824144,21.6590815 L76.624915,21.6590815 L67.0015756,32.2693179 L77.2645328,42.2944746 L72.1185174,42.2944746 L62.5942457,32.2693179 Z M95.7262262,34.7165054 C95.7262262,35.9600758 95.5130224,37.0821869 95.0866085,38.0828725 C94.6601945,39.0835581 94.0787297,39.9336423 93.3421965,40.6331506 C92.6056633,41.332659 91.7334661,41.8718552 90.7255785,42.2507556 C89.717691,42.6296559 88.6225989,42.8191033 87.4402693,42.8191033 C86.2579397,42.8191033 85.1628476,42.6296559 84.1549601,42.2507556 C83.1470726,41.8718552 82.2700298,41.332659 81.5238054,40.6331506 C80.7775809,39.9336423 80.1961161,39.0835581 79.7793934,38.0828725 C79.3626707,37.0821869 79.1543124,35.9600758 79.1543124,34.7165054 L79.1543124,21.6590815 L82.8175776,21.6590815 L82.8175776,34.5999212 C82.8175776,35.1051217 82.8951062,35.6346027 83.0501658,36.1883802 C83.2052255,36.7421576 83.4620391,37.2522081 83.8206145,37.7185471 C84.1791898,38.184886 84.6540528,38.5686382 85.2452176,38.8698155 C85.8363824,39.1709927 86.568059,39.321579 87.4402693,39.321579 C88.3124797,39.321579 89.0441563,39.1709927 89.6353211,38.8698155 C90.2264859,38.5686382 90.7013488,38.184886 91.0599242,37.7185471 C91.4184995,37.2522081 91.6753132,36.7421576 91.8303728,36.1883802 C91.9854324,35.6346027 92.0629611,35.1051217 92.0629611,34.5999212 L92.0629611,21.6590815 L95.7262262,21.6590815 L95.7262262,34.7165054 Z M110.32114,26.0892789 C109.933491,25.525786 109.415018,25.112888 108.765706,24.8505723 C108.116394,24.5882567 107.433172,24.4571009 106.716022,24.4571009 C106.289608,24.4571009 105.877737,24.5056771 105.480397,24.602831 C105.083056,24.699985 104.724486,24.855429 104.404676,25.0691676 C104.084865,25.2829063 103.828052,25.5597908 103.634227,25.8998296 C103.440403,26.2398684 103.343492,26.6430512 103.343492,27.1093901 C103.343492,27.8088985 103.585769,28.3432371 104.07033,28.7124221 C104.554891,29.081607 105.155739,29.4022102 105.872889,29.6742412 C106.59004,29.9462723 107.375018,30.208584 108.227845,30.4611842 C109.080673,30.7137844 109.865651,31.0635334 110.582802,31.5104415 C111.299952,31.9573496 111.900799,32.5499797 112.385361,33.2883496 C112.869922,34.0267196 113.112199,35.0079596 113.112199,36.2320992 C113.112199,37.3396541 112.908686,38.3063213 112.501655,39.1321298 C112.094623,39.9579382 111.547077,40.6428632 110.859,41.1869253 C110.170923,41.7309873 109.371409,42.1390278 108.460434,42.4110588 C107.549458,42.6830898 106.590041,42.8191033 105.582154,42.8191033 C104.302912,42.8191033 103.072145,42.6053678 101.889815,42.1778905 C100.707486,41.7504132 99.6899222,41.0314848 98.8370943,40.0210839 L101.59908,37.3396486 C102.044876,38.0197262 102.631187,38.5492072 103.358029,38.9281075 C104.084871,39.3070079 104.855312,39.4964552 105.669375,39.4964552 C106.095788,39.4964552 106.522196,39.4381637 106.94861,39.321579 C107.375024,39.2049943 107.762667,39.0301198 108.111551,38.7969504 C108.460435,38.5637809 108.741477,38.2674659 108.954684,37.9079963 C109.167891,37.5485267 109.274493,37.1356287 109.274493,36.6692898 C109.274493,35.9114891 109.032216,35.3285742 108.547654,34.9205276 C108.063093,34.5124811 107.462246,34.1675898 106.745095,33.8858434 C106.027944,33.604097 105.242967,33.3369276 104.390139,33.0843274 C103.537311,32.8317272 102.752334,32.4868359 102.035183,32.0496431 C101.318032,31.6124504 100.717185,31.0295355 100.232624,30.300881 C99.7480625,29.5722265 99.5057855,28.595844 99.5057855,27.3717044 C99.5057855,26.3030111 99.7238348,25.3800625 100.15994,24.602831 C100.596045,23.8255995 101.167819,23.1795356 101.875278,22.6646197 C102.582738,22.1497038 103.391943,21.7659515 104.302918,21.5133513 C105.213894,21.260751 106.144237,21.1344528 107.093978,21.1344528 C108.179395,21.1344528 109.230877,21.299612 110.248456,21.6299354 C111.266035,21.9602588 112.181842,22.5043127 112.995905,23.2621134 L110.32114,26.0892789 Z" id="FOKUS-Copy" fill="#4370F7"></path>
                    <path d="M21.6500946,48.2582827 L23.5339331,48.2582827 L25.3883366,53.1370017 L27.2623635,48.2582827 L29.1265787,48.2582827 L29.1265787,55.2222606 L27.9491797,55.2222606 L27.9491797,49.4386179 L27.9295563,49.4386179 L25.8200496,55.2222606 L24.9566237,55.2222606 L22.847117,49.4386179 L22.8274936,49.4386179 L22.8274936,55.2222606 L21.6500946,55.2222606 L21.6500946,48.2582827 Z M40.1363503,53.392741 L37.5068256,53.392741 L36.3882965,55.2222606 L34.8871127,55.2222606 L39.3317942,48.2582827 L44.1983771,48.2582827 L44.1983771,49.3796012 L41.3726193,49.3796012 L41.3726193,51.0910873 L44.0217672,51.0910873 L44.0217672,52.2124058 L41.3726193,52.2124058 L41.3726193,54.1009421 L44.316117,54.1009421 L44.316117,55.2222606 L40.1363503,55.2222606 L40.1363503,53.392741 Z M40.1363503,52.3304393 L40.1363503,49.3796012 L39.9891754,49.3796012 L38.1543951,52.3304393 L40.1363503,52.3304393 Z M56.7191441,54.710782 C55.8622549,55.1698036 54.9039925,55.3993109 53.844328,55.3993109 C53.3079546,55.3993109 52.8157413,55.312426 52.3676733,55.1386535 C51.9196053,54.9648811 51.5336839,54.7189804 51.2098976,54.400944 C50.8861112,54.0829077 50.6326459,53.7009419 50.449494,53.2550352 C50.2663421,52.8091286 50.1747675,52.3140485 50.1747675,51.76978 C50.1747675,51.2123967 50.2663421,50.7058412 50.449494,50.2500984 C50.6326459,49.7943556 50.8861112,49.4058325 51.2098976,49.0845174 C51.5336839,48.7632023 51.9196053,48.5156622 52.3676733,48.3418898 C52.8157413,48.1681173 53.3079546,48.0812324 53.844328,48.0812324 C54.3741602,48.0812324 54.8712793,48.1451666 55.3357002,48.2730369 C55.800121,48.4009072 56.2154771,48.6287752 56.5817809,48.9566477 L55.6692966,49.8812437 C55.4468979,49.6648478 55.1770799,49.4976353 54.8598347,49.3796012 C54.5425895,49.2615671 54.2073612,49.2025509 53.8541397,49.2025509 C53.494377,49.2025509 53.1689603,49.2664851 52.8778796,49.3943554 C52.5867989,49.5222257 52.3366041,49.6992742 52.1272877,49.9255062 C51.9179712,50.1517383 51.7560805,50.4156717 51.6416105,50.7173145 C51.5271406,51.0189572 51.4699065,51.3435461 51.4699065,51.691091 C51.4699065,52.0648657 51.5271406,52.4091267 51.6416105,52.7238844 C51.7560805,53.038642 51.9179712,53.3107721 52.1272877,53.5402829 C52.3366041,53.7697937 52.5867989,53.9501209 52.8778796,54.0812699 C53.1689603,54.2124189 53.494377,54.2779924 53.8541397,54.2779924 C54.1681143,54.2779924 54.4640964,54.2484843 54.7420948,54.1894673 C55.0200932,54.1304502 55.2670175,54.0386473 55.4828751,53.9140557 L55.4828751,52.2714225 L54.0601845,52.2714225 L54.0601845,51.150104 L56.7191441,51.150104 L56.7191441,54.710782 Z M63.1959291,48.2582827 L64.4321982,48.2582827 L64.4321982,54.1009421 L67.3855075,54.1009421 L67.3855075,55.2222606 L63.1959291,55.2222606 L63.1959291,48.2582827 Z M73.303028,48.2582827 L77.9046961,48.2582827 L77.9046961,49.3796012 L74.5392971,49.3796012 L74.5392971,51.0910873 L77.7280862,51.0910873 L77.7280862,52.2124058 L74.5392971,52.2124058 L74.5392971,54.1009421 L78.081306,54.1009421 L78.081306,55.2222606 L73.303028,55.2222606 L73.303028,48.2582827 Z M84.3127995,48.2582827 L86.7264677,48.2582827 C87.0600657,48.2582827 87.382212,48.2894301 87.6929161,48.3517259 C88.0036202,48.4140217 88.2799791,48.5205787 88.5220013,48.6714 C88.7640234,48.8222214 88.9569841,49.0254993 89.1008891,49.2812399 C89.2447942,49.5369805 89.3167456,49.8615694 89.3167456,50.2550165 C89.3167456,50.7599402 89.1777485,51.1828894 88.8997501,51.5238769 C88.6217517,51.8648643 88.2243835,52.0714209 87.7076336,52.1435529 L89.5522255,55.2222606 L88.0608533,55.2222606 L86.4517412,52.2714225 L85.5490686,52.2714225 L85.5490686,55.2222606 L84.3127995,55.2222606 L84.3127995,48.2582827 Z M86.5106112,51.2091208 C86.6872219,51.2091208 86.86383,51.2009241 87.0404407,51.1845305 C87.2170515,51.1681369 87.3789422,51.1287927 87.5261179,51.066497 C87.6732935,51.0042012 87.7926675,50.9091196 87.8842434,50.7812493 C87.9758194,50.653379 88.0216066,50.4746911 88.0216066,50.2451804 C88.0216066,50.0418994 87.9790899,49.8779656 87.8940551,49.753374 C87.8090203,49.6287824 87.6978226,49.5353402 87.5604587,49.4730444 C87.4230948,49.4107486 87.2710156,49.3697652 87.1042165,49.3500928 C86.9374175,49.3304204 86.7755267,49.3205844 86.6185394,49.3205844 L85.5490686,49.3205844 L85.5490686,51.2091208 L86.5106112,51.2091208 Z M95.5089926,48.2582827 L97.1475396,48.2582827 L100.512939,53.4320855 L100.532562,53.4320855 L100.532562,48.2582827 L101.768831,48.2582827 L101.768831,55.2222606 L100.198966,55.2222606 L96.7648849,49.8812437 L96.7452616,49.8812437 L96.7452616,55.2222606 L95.5089926,55.2222606 L95.5089926,48.2582827 Z M108.333921,48.2582827 L112.935589,48.2582827 L112.935589,49.3796012 L109.57019,49.3796012 L109.57019,51.0910873 L112.758979,51.0910873 L112.758979,52.2124058 L109.57019,52.2124058 L109.57019,54.1009421 L113.112199,54.1009421 L113.112199,55.2222606 L108.333921,55.2222606 L108.333921,48.2582827 Z" id="MÆGLERNE" fill="#4370F7"></path>
                    <polygon id="Path-Copy" fill="#000000" transform="translate(105.777055, 11.083381) scale(-1, 1) translate(-105.777055, -11.083381) " points="98.4419119 11.3759209 107.530081 0.765684516 112.472581 0.765684516 102.849242 11.3759209 113.112199 21.4010777 107.966184 21.4010777"></polygon>
                    <polygon id="Path-Copy-3" fill="#000000" points="21.6500946 66.143791 30.7382633 55.5335546 35.6807639 55.5335546 26.0574245 66.143791 36.3203816 76.1689478 31.1743663 76.1689478"></polygon>
                    <polygon id="Path-Copy-2" fill="#000000" transform="translate(123.633079, 29.006327) rotate(90.000000) translate(-123.633079, -29.006327) " points="116.297935 29.2988672 125.386104 18.6886308 130.328605 18.6886308 120.705265 29.2988672 130.968223 39.324024 125.822207 39.324024"></polygon>
                    <polygon id="Path-Copy-4" fill="#000000" transform="translate(11.072074, 48.520807) scale(1, -1) rotate(90.000000) translate(-11.072074, -48.520807) " points="3.7369303 48.8133472 12.825099 38.2031108 17.7675996 38.2031108 8.14426021 48.8133472 18.4072174 58.838504 13.261202 58.838504"></polygon>
                    <path d="M21.500252,0.924802145 L21.500252,76.2365076" id="Line" stroke="#FF9585" stroke-linecap="round" stroke-linejoin="round" stroke-dasharray="1,3"></path>
                    <path d="M0.647650662,0.924802145 L0.647650662,76.2365073" id="Line-Copy-7" stroke="#FF9585" stroke-linecap="round" stroke-linejoin="round" stroke-dasharray="1,3"></path>
                    <path d="M113.242745,0.92491657 L113.242745,75.3585568" id="Line-Copy" stroke="#FF9585" stroke-linecap="round" stroke-linejoin="round" stroke-dasharray="1,3"></path>
                    <path d="M134.059667,0.924802145 L134.059667,75.3585568" id="Line-Copy-6" stroke="#FF9585" stroke-linecap="round" stroke-linejoin="round" stroke-dasharray="1,3"></path>
                    <path d="M132.910797,55.3767366 L0.672662323,55.3767366" id="Line-Copy-2" stroke="#FF9585" stroke-linecap="round" stroke-linejoin="round" stroke-dasharray="1,3"></path>
                    <path d="M133.349679,76.3042468 L0.672645115,76.3042468" id="Line-Copy-5" stroke="#FF9585" stroke-linecap="round" stroke-linejoin="round" stroke-dasharray="1,3"></path>
                    <path d="M133.349684,21.5278258 L0.67266183,21.5278258" id="Line-Copy-3" stroke="#FF9585" stroke-linecap="round" stroke-linejoin="round" stroke-dasharray="1,3"></path>
                    <path d="M133.349665,0.607020744 L0.672652693,0.607020744" id="Line-Copy-4" stroke="#FF9585" stroke-linecap="round" stroke-linejoin="round" stroke-dasharray="1,3"></path>
                </g>
                <path d="M22.8964078,344.706806 L36.1830124,344.706806 L36.1830124,348.029454 L26.5596729,348.029454 L26.5596729,353.450617 L35.6306152,353.450617 L35.6306152,356.773265 L26.5596729,356.773265 L26.5596729,365.346258 L22.8964078,365.346258 L22.8964078,344.706806 Z M38.4798215,355.115999 C38.4798215,353.464382 38.7511717,351.963376 39.2938804,350.612937 C39.836589,349.262497 40.5876478,348.11124 41.5470792,347.159131 C42.5065106,346.207023 43.6500581,345.473522 44.9777561,344.958606 C46.3054541,344.44369 47.7639617,344.186236 49.3533228,344.186236 C50.9620663,344.166805 52.4351106,344.404828 53.7724998,344.900314 C55.109889,345.395799 56.2631276,346.119585 57.2322502,347.071693 C58.2013729,348.023802 58.9572772,349.170201 59.4999858,350.510925 C60.0426945,351.85165 60.3140447,353.347798 60.3140447,354.999415 C60.3140447,356.61217 60.0426945,358.079173 59.4999858,359.400466 C58.9572772,360.72176 58.2013729,361.858444 57.2322502,362.810552 C56.2631276,363.762661 55.109889,364.505877 53.7724998,365.040224 C52.4351106,365.574571 50.9620663,365.851455 49.3533228,365.870886 C47.7639617,365.870886 46.3054541,365.613432 44.9777561,365.098516 C43.6500581,364.5836 42.5065106,363.854957 41.5470792,362.912564 C40.5876478,361.97017 39.836589,360.838344 39.2938804,359.51705 C38.7511717,358.195757 38.4798215,356.728754 38.4798215,355.115999 Z M42.3175278,354.882831 C42.3175278,355.990386 42.4871217,357.010487 42.8263146,357.943164 C43.1655076,358.875842 43.6452161,359.682208 44.2654545,360.362285 C44.885693,361.042363 45.6270607,361.576702 46.4895798,361.965317 C47.3520989,362.353933 48.3163615,362.548238 49.3823963,362.548238 C50.4484312,362.548238 51.4175393,362.353933 52.2897496,361.965317 C53.16196,361.576702 53.9081732,361.042363 54.5284117,360.362285 C55.1486501,359.682208 55.6283586,358.875842 55.9675516,357.943164 C56.3067445,357.010487 56.4763384,355.990386 56.4763384,354.882831 C56.4763384,353.852999 56.3067445,352.891189 55.9675516,351.997373 C55.6283586,351.103557 55.1486501,350.32148 54.5284117,349.651117 C53.9081732,348.980755 53.16196,348.456132 52.2897496,348.077231 C51.4175393,347.698331 50.4484312,347.508884 49.3823963,347.508884 C48.3163615,347.508884 47.3520989,347.698331 46.4895798,348.077231 C45.6270607,348.456132 44.885693,348.980755 44.2654545,349.651117 C43.6452161,350.32148 43.1655076,351.103557 42.8263146,351.997373 C42.4871217,352.891189 42.3175278,353.852999 42.3175278,354.882831 Z M63.8405589,355.321101 L72.9287277,344.710864 L77.8712283,344.710864 L68.2478889,355.321101 L78.510846,365.346258 L73.3648307,365.346258 L63.8405589,355.321101 Z M96.9725394,357.768288 C96.9725394,359.011859 96.7593357,360.13397 96.3329217,361.134655 C95.9065078,362.135341 95.3250429,362.985425 94.5885097,363.684933 C93.8519766,364.384442 92.9797793,364.923638 91.9718918,365.302538 C90.9640043,365.681439 89.8689121,365.870886 88.6865825,365.870886 C87.504253,365.870886 86.4091608,365.681439 85.4012733,365.302538 C84.3933858,364.923638 83.516343,364.384442 82.7701186,363.684933 C82.0238942,362.985425 81.4424293,362.135341 81.0257066,361.134655 C80.6089839,360.13397 80.4006256,359.011859 80.4006256,357.768288 L80.4006256,344.710864 L84.0638908,344.710864 L84.0638908,357.651704 C84.0638908,358.156905 84.1414194,358.686386 84.2964791,359.240163 C84.4515387,359.793941 84.7083523,360.303991 85.0669277,360.77033 C85.4255031,361.236669 85.900366,361.620421 86.4915308,361.921598 C87.0826956,362.222776 87.8143722,362.373362 88.6865825,362.373362 C89.5587929,362.373362 90.2904695,362.222776 90.8816343,361.921598 C91.4727991,361.620421 91.947662,361.236669 92.3062374,360.77033 C92.6648128,360.303991 92.9216264,359.793941 93.076686,359.240163 C93.2317456,358.686386 93.3092743,358.156905 93.3092743,357.651704 L93.3092743,344.710864 L96.9725394,344.710864 L96.9725394,357.768288 Z M111.567453,349.141062 C111.179804,348.577569 110.661331,348.164671 110.012019,347.902355 C109.362707,347.64004 108.679486,347.508884 107.962335,347.508884 C107.535921,347.508884 107.12405,347.55746 106.72671,347.654614 C106.329369,347.751768 105.9708,347.907212 105.650989,348.120951 C105.331179,348.334689 105.074365,348.611574 104.88054,348.951613 C104.686716,349.291651 104.589805,349.694834 104.589805,350.161173 C104.589805,350.860681 104.832082,351.39502 105.316643,351.764205 C105.801205,352.13339 106.402052,352.453993 107.119202,352.726024 C107.836353,352.998055 108.621331,353.260367 109.474159,353.512967 C110.326987,353.765567 111.111964,354.115316 111.829115,354.562224 C112.546266,355.009132 113.147113,355.601763 113.631674,356.340133 C114.116235,357.078502 114.358512,358.059743 114.358512,359.283882 C114.358512,360.391437 114.154999,361.358104 113.747968,362.183913 C113.340936,363.009721 112.79339,363.694646 112.105313,364.238708 C111.417236,364.78277 110.617722,365.190811 109.706747,365.462842 C108.795772,365.734873 107.836355,365.870886 106.828467,365.870886 C105.549225,365.870886 104.318458,365.657151 103.136128,365.229673 C101.953799,364.802196 100.936235,364.083268 100.083407,363.072867 L102.845393,360.391431 C103.29119,361.071509 103.8775,361.60099 104.604342,361.97989 C105.331184,362.358791 106.101625,362.548238 106.915688,362.548238 C107.342102,362.548238 107.768509,362.489947 108.194923,362.373362 C108.621337,362.256777 109.00898,362.081903 109.357864,361.848733 C109.706749,361.615564 109.98779,361.319249 110.200997,360.959779 C110.414204,360.60031 110.520806,360.187412 110.520806,359.721073 C110.520806,358.963272 110.278529,358.380357 109.793967,357.972311 C109.309406,357.564264 108.708559,357.219373 107.991408,356.937626 C107.274258,356.65588 106.48928,356.388711 105.636452,356.13611 C104.783624,355.88351 103.998647,355.538619 103.281496,355.101426 C102.564345,354.664233 101.963498,354.081318 101.478937,353.352664 C100.994376,352.624009 100.752099,351.647627 100.752099,350.423487 C100.752099,349.354794 100.970148,348.431845 101.406253,347.654614 C101.842358,346.877382 102.414132,346.231318 103.121592,345.716403 C103.829051,345.201487 104.638256,344.817734 105.549232,344.565134 C106.460207,344.312534 107.390551,344.186236 108.340291,344.186236 C109.425708,344.186236 110.47719,344.351395 111.494769,344.681718 C112.512348,345.012042 113.428155,345.556096 114.242218,346.313896 L111.567453,349.141062 Z" id="FOKUS-Copy" fill="#4370F7"></path>
                <path d="M22.8964078,371.310066 L24.7802463,371.310066 L26.6346499,376.188785 L28.5086767,371.310066 L30.372892,371.310066 L30.372892,378.274044 L29.1954929,378.274044 L29.1954929,372.490401 L29.1758696,372.490401 L27.0663629,378.274044 L26.2029369,378.274044 L24.0934302,372.490401 L24.0738069,372.490401 L24.0738069,378.274044 L22.8964078,378.274044 L22.8964078,371.310066 Z M41.3826635,376.444524 L38.7531389,376.444524 L37.6346097,378.274044 L36.1334259,378.274044 L40.5781074,371.310066 L45.4446903,371.310066 L45.4446903,372.431384 L42.6189325,372.431384 L42.6189325,374.14287 L45.2680805,374.14287 L45.2680805,375.264189 L42.6189325,375.264189 L42.6189325,377.152725 L45.5624302,377.152725 L45.5624302,378.274044 L41.3826635,378.274044 L41.3826635,376.444524 Z M41.3826635,375.382222 L41.3826635,372.431384 L41.2354886,372.431384 L39.4007084,375.382222 L41.3826635,375.382222 Z M57.9654573,377.762565 C57.1085681,378.221586 56.1503057,378.451094 55.0906412,378.451094 C54.5542678,378.451094 54.0620545,378.364209 53.6139865,378.190436 C53.1659185,378.016664 52.7799971,377.770763 52.4562108,377.452727 C52.1324244,377.134691 51.8789591,376.752725 51.6958072,376.306818 C51.5126553,375.860911 51.4210807,375.365831 51.4210807,374.821563 C51.4210807,374.26418 51.5126553,373.757624 51.6958072,373.301881 C51.8789591,372.846138 52.1324244,372.457615 52.4562108,372.1363 C52.7799971,371.814985 53.1659185,371.567445 53.6139865,371.393673 C54.0620545,371.2199 54.5542678,371.133015 55.0906412,371.133015 C55.6204735,371.133015 56.1175925,371.196949 56.5820134,371.32482 C57.0464342,371.45269 57.4617903,371.680558 57.8280941,372.008431 L56.9156098,372.933027 C56.6932111,372.716631 56.4233932,372.549418 56.1061479,372.431384 C55.7889027,372.31335 55.4536744,372.254334 55.1004529,372.254334 C54.7406903,372.254334 54.4152735,372.318268 54.1241928,372.446138 C53.8331121,372.574009 53.5829173,372.751057 53.3736009,372.977289 C53.1642845,373.203521 53.0023937,373.467455 52.8879238,373.769097 C52.7734538,374.07074 52.7162197,374.395329 52.7162197,374.742874 C52.7162197,375.116649 52.7734538,375.46091 52.8879238,375.775667 C53.0023937,376.090425 53.1642845,376.362555 53.3736009,376.592066 C53.5829173,376.821577 53.8331121,377.001904 54.1241928,377.133053 C54.4152735,377.264202 54.7406903,377.329775 55.1004529,377.329775 C55.4144275,377.329775 55.7104096,377.300267 55.988408,377.24125 C56.2664064,377.182233 56.5133307,377.09043 56.7291883,376.965839 L56.7291883,375.323205 L55.3064977,375.323205 L55.3064977,374.201887 L57.9654573,374.201887 L57.9654573,377.762565 Z M64.4422424,371.310066 L65.6785114,371.310066 L65.6785114,377.152725 L68.6318208,377.152725 L68.6318208,378.274044 L64.4422424,378.274044 L64.4422424,371.310066 Z M74.5493412,371.310066 L79.1510093,371.310066 L79.1510093,372.431384 L75.7856103,372.431384 L75.7856103,374.14287 L78.9743995,374.14287 L78.9743995,375.264189 L75.7856103,375.264189 L75.7856103,377.152725 L79.3276192,377.152725 L79.3276192,378.274044 L74.5493412,378.274044 L74.5493412,371.310066 Z M85.5591128,371.310066 L87.9727809,371.310066 C88.306379,371.310066 88.6285252,371.341213 88.9392293,371.403509 C89.2499334,371.465805 89.5262923,371.572362 89.7683145,371.723183 C90.0103366,371.874004 90.2032973,372.077282 90.3472024,372.333023 C90.4911074,372.588763 90.5630589,372.913352 90.5630589,373.306799 C90.5630589,373.811723 90.4240617,374.234672 90.1460634,374.57566 C89.868065,374.916647 89.4706967,375.123204 88.9539468,375.195336 L90.7985387,378.274044 L89.3071665,378.274044 L87.6980544,375.323205 L86.7953818,375.323205 L86.7953818,378.274044 L85.5591128,378.274044 L85.5591128,371.310066 Z M87.7569244,374.260904 C87.9335351,374.260904 88.1101432,374.252707 88.286754,374.236313 C88.4633647,374.21992 88.6252555,374.180576 88.7724311,374.11828 C88.9196067,374.055984 89.0389807,373.960902 89.1305566,373.833032 C89.2221326,373.705162 89.2679199,373.526474 89.2679199,373.296963 C89.2679199,373.093682 89.2254031,372.929748 89.1403683,372.805157 C89.0553335,372.680565 88.9441358,372.587123 88.8067719,372.524827 C88.669408,372.462531 88.5173288,372.421548 88.3505297,372.401876 C88.1837307,372.382203 88.02184,372.372367 87.8648526,372.372367 L86.7953818,372.372367 L86.7953818,374.260904 L87.7569244,374.260904 Z M96.7553058,371.310066 L98.3938528,371.310066 L101.759252,376.483868 L101.778875,376.483868 L101.778875,371.310066 L103.015144,371.310066 L103.015144,378.274044 L101.445279,378.274044 L98.0111981,372.933027 L97.9915748,372.933027 L97.9915748,378.274044 L96.7553058,378.274044 L96.7553058,371.310066 Z M109.580234,371.310066 L114.181902,371.310066 L114.181902,372.431384 L110.816503,372.431384 L110.816503,374.14287 L114.005292,374.14287 L114.005292,375.264189 L110.816503,375.264189 L110.816503,377.152725 L114.358512,377.152725 L114.358512,378.274044 L109.580234,378.274044 L109.580234,371.310066 Z" id="MÆGLERNE" fill="#4370F7"></path>
                <polygon id="Path-Copy" fill="#000000" transform="translate(107.023369, 334.135164) scale(-1, 1) translate(-107.023369, -334.135164) " points="99.6882251 334.427704 108.776394 323.817467 113.718894 323.817467 104.095555 334.427704 114.358512 344.452861 109.212497 344.452861"></polygon>
                <polygon id="Path-Copy-3" fill="#000000" points="22.8964078 389.195574 31.9845765 378.585338 36.9270771 378.585338 27.3037377 389.195574 37.5666948 399.220731 32.4206795 399.220731"></polygon>
                <polygon id="Path-Copy-2" fill="#000000" transform="translate(124.879392, 352.058110) rotate(90.000000) translate(-124.879392, -352.058110) " points="117.544249 352.35065 126.632417 341.740414 131.574918 341.740414 121.951579 352.35065 132.214536 362.375807 127.06852 362.375807"></polygon>
                <polygon id="Path-Copy-4" fill="#000000" transform="translate(12.318387, 371.572590) scale(1, -1) rotate(90.000000) translate(-12.318387, -371.572590) " points="4.98324352 371.86513 14.0714122 361.254894 19.0139128 361.254894 9.39057343 371.86513 19.6535306 381.890287 14.5075152 381.890287"></polygon>
                <path d="M22.7465653,323.976585 L22.7465653,399.288291" id="Line" stroke="#FF9585" stroke-linecap="round" stroke-linejoin="round" stroke-dasharray="1,3"></path>
                <path d="M1.89396388,323.976585 L1.89396388,399.28829" id="Line-Copy-7" stroke="#FF9585" stroke-linecap="round" stroke-linejoin="round" stroke-dasharray="1,3"></path>
                <path d="M114.489058,323.976699 L114.489058,398.41034" id="Line-Copy" stroke="#FF9585" stroke-linecap="round" stroke-linejoin="round" stroke-dasharray="1,3"></path>
                <path d="M135.30598,323.976585 L135.30598,398.41034" id="Line-Copy-6" stroke="#FF9585" stroke-linecap="round" stroke-linejoin="round" stroke-dasharray="1,3"></path>
                <path d="M134.15711,378.428519 L1.91897554,378.428519" id="Line-Copy-2" stroke="#FF9585" stroke-linecap="round" stroke-linejoin="round" stroke-dasharray="1,3"></path>
                <path d="M134.595992,399.35603 L1.91895834,399.35603" id="Line-Copy-5" stroke="#FF9585" stroke-linecap="round" stroke-linejoin="round" stroke-dasharray="1,3"></path>
                <path d="M134.595997,344.579609 L1.91897505,344.579609" id="Line-Copy-3" stroke="#FF9585" stroke-linecap="round" stroke-linejoin="round" stroke-dasharray="1,3"></path>
                <path d="M134.595978,323.658804 L1.91896591,323.658804" id="Line-Copy-4" stroke="#FF9585" stroke-linecap="round" stroke-linejoin="round" stroke-dasharray="1,3"></path>
                <g id="respektafstand-logo-copy-4" transform="translate(264.273133, 323.051783)">
                    <path d="M21.6500946,21.6550231 L34.9366991,21.6550231 L34.9366991,24.9776711 L25.3133597,24.9776711 L25.3133597,30.3988337 L34.384302,30.3988337 L34.384302,33.7214818 L25.3133597,33.7214818 L25.3133597,42.2944746 L21.6500946,42.2944746 L21.6500946,21.6550231 Z M37.2335082,32.0642162 C37.2335082,30.4125992 37.5048585,28.9115934 38.0475672,27.5611537 C38.5902758,26.2107139 39.3413346,25.059457 40.300766,24.1073484 C41.2601974,23.1552399 42.4037449,22.4217386 43.7314429,21.9068228 C45.0591408,21.3919069 46.5176485,21.1344528 48.1070096,21.1344528 C49.7157531,21.115022 51.1887974,21.3530456 52.5261866,21.8485307 C53.8635758,22.3440158 55.0168144,23.0678017 55.985937,24.0199103 C56.9550596,24.9720189 57.7109639,26.1184182 58.2536726,27.4591425 C58.7963813,28.7998669 59.0677315,30.2960151 59.0677315,31.947632 C59.0677315,33.5603874 58.7963813,35.0273898 58.2536726,36.3486834 C57.7109639,37.6699769 56.9550596,38.806661 55.985937,39.7587695 C55.0168144,40.7108781 53.8635758,41.4540946 52.5261866,41.9884413 C51.1887974,42.5227879 49.7157531,42.7996725 48.1070096,42.8191033 C46.5176485,42.8191033 45.0591408,42.5616492 43.7314429,42.0467333 C42.4037449,41.5318175 41.2601974,40.8031739 40.300766,39.8607807 C39.3413346,38.9183875 38.5902758,37.7865611 38.0475672,36.4652675 C37.5048585,35.143974 37.2335082,33.6769715 37.2335082,32.0642162 Z M41.0712146,31.8310479 C41.0712146,32.9386028 41.2408085,33.9587038 41.5800014,34.8913816 C41.9191943,35.8240594 42.3989028,36.630425 43.0191413,37.3105026 C43.6393798,37.9905801 44.3807475,38.5249188 45.2432666,38.9135345 C46.1057857,39.3021503 47.0700482,39.4964552 48.1360831,39.4964552 C49.202118,39.4964552 50.1712261,39.3021503 51.0434364,38.9135345 C51.9156468,38.5249188 52.66186,37.9905801 53.2820985,37.3105026 C53.9023369,36.630425 54.3820454,35.8240594 54.7212383,34.8913816 C55.0604312,33.9587038 55.2300252,32.9386028 55.2300252,31.8310479 C55.2300252,30.8012161 55.0604312,29.8394066 54.7212383,28.9455903 C54.3820454,28.0517741 53.9023369,27.2696967 53.2820985,26.5993345 C52.66186,25.9289723 51.9156468,25.4043489 51.0434364,25.0254486 C50.1712261,24.6465482 49.202118,24.4571009 48.1360831,24.4571009 C47.0700482,24.4571009 46.1057857,24.6465482 45.2432666,25.0254486 C44.3807475,25.4043489 43.6393798,25.9289723 43.0191413,26.5993345 C42.3989028,27.2696967 41.9191943,28.0517741 41.5800014,28.9455903 C41.2408085,29.8394066 41.0712146,30.8012161 41.0712146,31.8310479 Z M62.5942457,32.2693179 L71.6824144,21.6590815 L76.624915,21.6590815 L67.0015756,32.2693179 L77.2645328,42.2944746 L72.1185174,42.2944746 L62.5942457,32.2693179 Z M95.7262262,34.7165054 C95.7262262,35.9600758 95.5130224,37.0821869 95.0866085,38.0828725 C94.6601945,39.0835581 94.0787297,39.9336423 93.3421965,40.6331506 C92.6056633,41.332659 91.7334661,41.8718552 90.7255785,42.2507556 C89.717691,42.6296559 88.6225989,42.8191033 87.4402693,42.8191033 C86.2579397,42.8191033 85.1628476,42.6296559 84.1549601,42.2507556 C83.1470726,41.8718552 82.2700298,41.332659 81.5238054,40.6331506 C80.7775809,39.9336423 80.1961161,39.0835581 79.7793934,38.0828725 C79.3626707,37.0821869 79.1543124,35.9600758 79.1543124,34.7165054 L79.1543124,21.6590815 L82.8175776,21.6590815 L82.8175776,34.5999212 C82.8175776,35.1051217 82.8951062,35.6346027 83.0501658,36.1883802 C83.2052255,36.7421576 83.4620391,37.2522081 83.8206145,37.7185471 C84.1791898,38.184886 84.6540528,38.5686382 85.2452176,38.8698155 C85.8363824,39.1709927 86.568059,39.321579 87.4402693,39.321579 C88.3124797,39.321579 89.0441563,39.1709927 89.6353211,38.8698155 C90.2264859,38.5686382 90.7013488,38.184886 91.0599242,37.7185471 C91.4184995,37.2522081 91.6753132,36.7421576 91.8303728,36.1883802 C91.9854324,35.6346027 92.0629611,35.1051217 92.0629611,34.5999212 L92.0629611,21.6590815 L95.7262262,21.6590815 L95.7262262,34.7165054 Z M110.32114,26.0892789 C109.933491,25.525786 109.415018,25.112888 108.765706,24.8505723 C108.116394,24.5882567 107.433172,24.4571009 106.716022,24.4571009 C106.289608,24.4571009 105.877737,24.5056771 105.480397,24.602831 C105.083056,24.699985 104.724486,24.855429 104.404676,25.0691676 C104.084865,25.2829063 103.828052,25.5597908 103.634227,25.8998296 C103.440403,26.2398684 103.343492,26.6430512 103.343492,27.1093901 C103.343492,27.8088985 103.585769,28.3432371 104.07033,28.7124221 C104.554891,29.081607 105.155739,29.4022102 105.872889,29.6742412 C106.59004,29.9462723 107.375018,30.208584 108.227845,30.4611842 C109.080673,30.7137844 109.865651,31.0635334 110.582802,31.5104415 C111.299952,31.9573496 111.900799,32.5499797 112.385361,33.2883496 C112.869922,34.0267196 113.112199,35.0079596 113.112199,36.2320992 C113.112199,37.3396541 112.908686,38.3063213 112.501655,39.1321298 C112.094623,39.9579382 111.547077,40.6428632 110.859,41.1869253 C110.170923,41.7309873 109.371409,42.1390278 108.460434,42.4110588 C107.549458,42.6830898 106.590041,42.8191033 105.582154,42.8191033 C104.302912,42.8191033 103.072145,42.6053678 101.889815,42.1778905 C100.707486,41.7504132 99.6899222,41.0314848 98.8370943,40.0210839 L101.59908,37.3396486 C102.044876,38.0197262 102.631187,38.5492072 103.358029,38.9281075 C104.084871,39.3070079 104.855312,39.4964552 105.669375,39.4964552 C106.095788,39.4964552 106.522196,39.4381637 106.94861,39.321579 C107.375024,39.2049943 107.762667,39.0301198 108.111551,38.7969504 C108.460435,38.5637809 108.741477,38.2674659 108.954684,37.9079963 C109.167891,37.5485267 109.274493,37.1356287 109.274493,36.6692898 C109.274493,35.9114891 109.032216,35.3285742 108.547654,34.9205276 C108.063093,34.5124811 107.462246,34.1675898 106.745095,33.8858434 C106.027944,33.604097 105.242967,33.3369276 104.390139,33.0843274 C103.537311,32.8317272 102.752334,32.4868359 102.035183,32.0496431 C101.318032,31.6124504 100.717185,31.0295355 100.232624,30.300881 C99.7480625,29.5722265 99.5057855,28.595844 99.5057855,27.3717044 C99.5057855,26.3030111 99.7238348,25.3800625 100.15994,24.602831 C100.596045,23.8255995 101.167819,23.1795356 101.875278,22.6646197 C102.582738,22.1497038 103.391943,21.7659515 104.302918,21.5133513 C105.213894,21.260751 106.144237,21.1344528 107.093978,21.1344528 C108.179395,21.1344528 109.230877,21.299612 110.248456,21.6299354 C111.266035,21.9602588 112.181842,22.5043127 112.995905,23.2621134 L110.32114,26.0892789 Z" id="FOKUS-Copy" fill="#4370F7"></path>
                    <path d="M21.6500946,48.2582827 L23.5339331,48.2582827 L25.3883366,53.1370017 L27.2623635,48.2582827 L29.1265787,48.2582827 L29.1265787,55.2222606 L27.9491797,55.2222606 L27.9491797,49.4386179 L27.9295563,49.4386179 L25.8200496,55.2222606 L24.9566237,55.2222606 L22.847117,49.4386179 L22.8274936,49.4386179 L22.8274936,55.2222606 L21.6500946,55.2222606 L21.6500946,48.2582827 Z M40.1363503,53.392741 L37.5068256,53.392741 L36.3882965,55.2222606 L34.8871127,55.2222606 L39.3317942,48.2582827 L44.1983771,48.2582827 L44.1983771,49.3796012 L41.3726193,49.3796012 L41.3726193,51.0910873 L44.0217672,51.0910873 L44.0217672,52.2124058 L41.3726193,52.2124058 L41.3726193,54.1009421 L44.316117,54.1009421 L44.316117,55.2222606 L40.1363503,55.2222606 L40.1363503,53.392741 Z M40.1363503,52.3304393 L40.1363503,49.3796012 L39.9891754,49.3796012 L38.1543951,52.3304393 L40.1363503,52.3304393 Z M56.7191441,54.710782 C55.8622549,55.1698036 54.9039925,55.3993109 53.844328,55.3993109 C53.3079546,55.3993109 52.8157413,55.312426 52.3676733,55.1386535 C51.9196053,54.9648811 51.5336839,54.7189804 51.2098976,54.400944 C50.8861112,54.0829077 50.6326459,53.7009419 50.449494,53.2550352 C50.2663421,52.8091286 50.1747675,52.3140485 50.1747675,51.76978 C50.1747675,51.2123967 50.2663421,50.7058412 50.449494,50.2500984 C50.6326459,49.7943556 50.8861112,49.4058325 51.2098976,49.0845174 C51.5336839,48.7632023 51.9196053,48.5156622 52.3676733,48.3418898 C52.8157413,48.1681173 53.3079546,48.0812324 53.844328,48.0812324 C54.3741602,48.0812324 54.8712793,48.1451666 55.3357002,48.2730369 C55.800121,48.4009072 56.2154771,48.6287752 56.5817809,48.9566477 L55.6692966,49.8812437 C55.4468979,49.6648478 55.1770799,49.4976353 54.8598347,49.3796012 C54.5425895,49.2615671 54.2073612,49.2025509 53.8541397,49.2025509 C53.494377,49.2025509 53.1689603,49.2664851 52.8778796,49.3943554 C52.5867989,49.5222257 52.3366041,49.6992742 52.1272877,49.9255062 C51.9179712,50.1517383 51.7560805,50.4156717 51.6416105,50.7173145 C51.5271406,51.0189572 51.4699065,51.3435461 51.4699065,51.691091 C51.4699065,52.0648657 51.5271406,52.4091267 51.6416105,52.7238844 C51.7560805,53.038642 51.9179712,53.3107721 52.1272877,53.5402829 C52.3366041,53.7697937 52.5867989,53.9501209 52.8778796,54.0812699 C53.1689603,54.2124189 53.494377,54.2779924 53.8541397,54.2779924 C54.1681143,54.2779924 54.4640964,54.2484843 54.7420948,54.1894673 C55.0200932,54.1304502 55.2670175,54.0386473 55.4828751,53.9140557 L55.4828751,52.2714225 L54.0601845,52.2714225 L54.0601845,51.150104 L56.7191441,51.150104 L56.7191441,54.710782 Z M63.1959291,48.2582827 L64.4321982,48.2582827 L64.4321982,54.1009421 L67.3855075,54.1009421 L67.3855075,55.2222606 L63.1959291,55.2222606 L63.1959291,48.2582827 Z M73.303028,48.2582827 L77.9046961,48.2582827 L77.9046961,49.3796012 L74.5392971,49.3796012 L74.5392971,51.0910873 L77.7280862,51.0910873 L77.7280862,52.2124058 L74.5392971,52.2124058 L74.5392971,54.1009421 L78.081306,54.1009421 L78.081306,55.2222606 L73.303028,55.2222606 L73.303028,48.2582827 Z M84.3127995,48.2582827 L86.7264677,48.2582827 C87.0600657,48.2582827 87.382212,48.2894301 87.6929161,48.3517259 C88.0036202,48.4140217 88.2799791,48.5205787 88.5220013,48.6714 C88.7640234,48.8222214 88.9569841,49.0254993 89.1008891,49.2812399 C89.2447942,49.5369805 89.3167456,49.8615694 89.3167456,50.2550165 C89.3167456,50.7599402 89.1777485,51.1828894 88.8997501,51.5238769 C88.6217517,51.8648643 88.2243835,52.0714209 87.7076336,52.1435529 L89.5522255,55.2222606 L88.0608533,55.2222606 L86.4517412,52.2714225 L85.5490686,52.2714225 L85.5490686,55.2222606 L84.3127995,55.2222606 L84.3127995,48.2582827 Z M86.5106112,51.2091208 C86.6872219,51.2091208 86.86383,51.2009241 87.0404407,51.1845305 C87.2170515,51.1681369 87.3789422,51.1287927 87.5261179,51.066497 C87.6732935,51.0042012 87.7926675,50.9091196 87.8842434,50.7812493 C87.9758194,50.653379 88.0216066,50.4746911 88.0216066,50.2451804 C88.0216066,50.0418994 87.9790899,49.8779656 87.8940551,49.753374 C87.8090203,49.6287824 87.6978226,49.5353402 87.5604587,49.4730444 C87.4230948,49.4107486 87.2710156,49.3697652 87.1042165,49.3500928 C86.9374175,49.3304204 86.7755267,49.3205844 86.6185394,49.3205844 L85.5490686,49.3205844 L85.5490686,51.2091208 L86.5106112,51.2091208 Z M95.5089926,48.2582827 L97.1475396,48.2582827 L100.512939,53.4320855 L100.532562,53.4320855 L100.532562,48.2582827 L101.768831,48.2582827 L101.768831,55.2222606 L100.198966,55.2222606 L96.7648849,49.8812437 L96.7452616,49.8812437 L96.7452616,55.2222606 L95.5089926,55.2222606 L95.5089926,48.2582827 Z M108.333921,48.2582827 L112.935589,48.2582827 L112.935589,49.3796012 L109.57019,49.3796012 L109.57019,51.0910873 L112.758979,51.0910873 L112.758979,52.2124058 L109.57019,52.2124058 L109.57019,54.1009421 L113.112199,54.1009421 L113.112199,55.2222606 L108.333921,55.2222606 L108.333921,48.2582827 Z" id="MÆGLERNE" fill="#4370F7"></path>
                    <polygon id="Path-Copy" fill="#000000" transform="translate(105.777055, 11.083381) scale(-1, 1) translate(-105.777055, -11.083381) " points="98.4419119 11.3759209 107.530081 0.765684516 112.472581 0.765684516 102.849242 11.3759209 113.112199 21.4010777 107.966184 21.4010777"></polygon>
                    <polygon id="Path-Copy-3" fill="#000000" points="21.6500946 66.143791 30.7382633 55.5335546 35.6807639 55.5335546 26.0574245 66.143791 36.3203816 76.1689478 31.1743663 76.1689478"></polygon>
                    <polygon id="Path-Copy-2" fill="#000000" transform="translate(123.633079, 29.006327) rotate(90.000000) translate(-123.633079, -29.006327) " points="116.297935 29.2988672 125.386104 18.6886308 130.328605 18.6886308 120.705265 29.2988672 130.968223 39.324024 125.822207 39.324024"></polygon>
                    <polygon id="Path-Copy-4" fill="#000000" transform="translate(11.072074, 48.520807) scale(1, -1) rotate(90.000000) translate(-11.072074, -48.520807) " points="3.7369303 48.8133472 12.825099 38.2031108 17.7675996 38.2031108 8.14426021 48.8133472 18.4072174 58.838504 13.261202 58.838504"></polygon>
                    <path d="M21.500252,0.924802145 L21.500252,76.2365076" id="Line" stroke="#FF9585" stroke-linecap="round" stroke-linejoin="round" stroke-dasharray="1,3"></path>
                    <path d="M0.647650662,0.924802145 L0.647650662,76.2365073" id="Line-Copy-7" stroke="#FF9585" stroke-linecap="round" stroke-linejoin="round" stroke-dasharray="1,3"></path>
                    <path d="M113.242745,0.92491657 L113.242745,75.3585568" id="Line-Copy" stroke="#FF9585" stroke-linecap="round" stroke-linejoin="round" stroke-dasharray="1,3"></path>
                    <path d="M134.059667,0.924802145 L134.059667,75.3585568" id="Line-Copy-6" stroke="#FF9585" stroke-linecap="round" stroke-linejoin="round" stroke-dasharray="1,3"></path>
                    <path d="M132.910797,55.3767366 L0.672662323,55.3767366" id="Line-Copy-2" stroke="#FF9585" stroke-linecap="round" stroke-linejoin="round" stroke-dasharray="1,3"></path>
                    <path d="M133.349679,76.3042468 L0.672645115,76.3042468" id="Line-Copy-5" stroke="#FF9585" stroke-linecap="round" stroke-linejoin="round" stroke-dasharray="1,3"></path>
                    <path d="M133.349684,21.5278258 L0.67266183,21.5278258" id="Line-Copy-3" stroke="#FF9585" stroke-linecap="round" stroke-linejoin="round" stroke-dasharray="1,3"></path>
                    <path d="M133.349665,0.607020744 L0.672652693,0.607020744" id="Line-Copy-4" stroke="#FF9585" stroke-linecap="round" stroke-linejoin="round" stroke-dasharray="1,3"></path>
                </g>
                <g id="respektafstand-logo-copy-5" transform="translate(264.273133, 0.678024)">
                    <path d="M21.6500946,21.6550231 L34.9366991,21.6550231 L34.9366991,24.9776711 L25.3133597,24.9776711 L25.3133597,30.3988337 L34.384302,30.3988337 L34.384302,33.7214818 L25.3133597,33.7214818 L25.3133597,42.2944746 L21.6500946,42.2944746 L21.6500946,21.6550231 Z M37.2335082,32.0642162 C37.2335082,30.4125992 37.5048585,28.9115934 38.0475672,27.5611537 C38.5902758,26.2107139 39.3413346,25.059457 40.300766,24.1073484 C41.2601974,23.1552399 42.4037449,22.4217386 43.7314429,21.9068228 C45.0591408,21.3919069 46.5176485,21.1344528 48.1070096,21.1344528 C49.7157531,21.115022 51.1887974,21.3530456 52.5261866,21.8485307 C53.8635758,22.3440158 55.0168144,23.0678017 55.985937,24.0199103 C56.9550596,24.9720189 57.7109639,26.1184182 58.2536726,27.4591425 C58.7963813,28.7998669 59.0677315,30.2960151 59.0677315,31.947632 C59.0677315,33.5603874 58.7963813,35.0273898 58.2536726,36.3486834 C57.7109639,37.6699769 56.9550596,38.806661 55.985937,39.7587695 C55.0168144,40.7108781 53.8635758,41.4540946 52.5261866,41.9884413 C51.1887974,42.5227879 49.7157531,42.7996725 48.1070096,42.8191033 C46.5176485,42.8191033 45.0591408,42.5616492 43.7314429,42.0467333 C42.4037449,41.5318175 41.2601974,40.8031739 40.300766,39.8607807 C39.3413346,38.9183875 38.5902758,37.7865611 38.0475672,36.4652675 C37.5048585,35.143974 37.2335082,33.6769715 37.2335082,32.0642162 Z M41.0712146,31.8310479 C41.0712146,32.9386028 41.2408085,33.9587038 41.5800014,34.8913816 C41.9191943,35.8240594 42.3989028,36.630425 43.0191413,37.3105026 C43.6393798,37.9905801 44.3807475,38.5249188 45.2432666,38.9135345 C46.1057857,39.3021503 47.0700482,39.4964552 48.1360831,39.4964552 C49.202118,39.4964552 50.1712261,39.3021503 51.0434364,38.9135345 C51.9156468,38.5249188 52.66186,37.9905801 53.2820985,37.3105026 C53.9023369,36.630425 54.3820454,35.8240594 54.7212383,34.8913816 C55.0604312,33.9587038 55.2300252,32.9386028 55.2300252,31.8310479 C55.2300252,30.8012161 55.0604312,29.8394066 54.7212383,28.9455903 C54.3820454,28.0517741 53.9023369,27.2696967 53.2820985,26.5993345 C52.66186,25.9289723 51.9156468,25.4043489 51.0434364,25.0254486 C50.1712261,24.6465482 49.202118,24.4571009 48.1360831,24.4571009 C47.0700482,24.4571009 46.1057857,24.6465482 45.2432666,25.0254486 C44.3807475,25.4043489 43.6393798,25.9289723 43.0191413,26.5993345 C42.3989028,27.2696967 41.9191943,28.0517741 41.5800014,28.9455903 C41.2408085,29.8394066 41.0712146,30.8012161 41.0712146,31.8310479 Z M62.5942457,32.2693179 L71.6824144,21.6590815 L76.624915,21.6590815 L67.0015756,32.2693179 L77.2645328,42.2944746 L72.1185174,42.2944746 L62.5942457,32.2693179 Z M95.7262262,34.7165054 C95.7262262,35.9600758 95.5130224,37.0821869 95.0866085,38.0828725 C94.6601945,39.0835581 94.0787297,39.9336423 93.3421965,40.6331506 C92.6056633,41.332659 91.7334661,41.8718552 90.7255785,42.2507556 C89.717691,42.6296559 88.6225989,42.8191033 87.4402693,42.8191033 C86.2579397,42.8191033 85.1628476,42.6296559 84.1549601,42.2507556 C83.1470726,41.8718552 82.2700298,41.332659 81.5238054,40.6331506 C80.7775809,39.9336423 80.1961161,39.0835581 79.7793934,38.0828725 C79.3626707,37.0821869 79.1543124,35.9600758 79.1543124,34.7165054 L79.1543124,21.6590815 L82.8175776,21.6590815 L82.8175776,34.5999212 C82.8175776,35.1051217 82.8951062,35.6346027 83.0501658,36.1883802 C83.2052255,36.7421576 83.4620391,37.2522081 83.8206145,37.7185471 C84.1791898,38.184886 84.6540528,38.5686382 85.2452176,38.8698155 C85.8363824,39.1709927 86.568059,39.321579 87.4402693,39.321579 C88.3124797,39.321579 89.0441563,39.1709927 89.6353211,38.8698155 C90.2264859,38.5686382 90.7013488,38.184886 91.0599242,37.7185471 C91.4184995,37.2522081 91.6753132,36.7421576 91.8303728,36.1883802 C91.9854324,35.6346027 92.0629611,35.1051217 92.0629611,34.5999212 L92.0629611,21.6590815 L95.7262262,21.6590815 L95.7262262,34.7165054 Z M110.32114,26.0892789 C109.933491,25.525786 109.415018,25.112888 108.765706,24.8505723 C108.116394,24.5882567 107.433172,24.4571009 106.716022,24.4571009 C106.289608,24.4571009 105.877737,24.5056771 105.480397,24.602831 C105.083056,24.699985 104.724486,24.855429 104.404676,25.0691676 C104.084865,25.2829063 103.828052,25.5597908 103.634227,25.8998296 C103.440403,26.2398684 103.343492,26.6430512 103.343492,27.1093901 C103.343492,27.8088985 103.585769,28.3432371 104.07033,28.7124221 C104.554891,29.081607 105.155739,29.4022102 105.872889,29.6742412 C106.59004,29.9462723 107.375018,30.208584 108.227845,30.4611842 C109.080673,30.7137844 109.865651,31.0635334 110.582802,31.5104415 C111.299952,31.9573496 111.900799,32.5499797 112.385361,33.2883496 C112.869922,34.0267196 113.112199,35.0079596 113.112199,36.2320992 C113.112199,37.3396541 112.908686,38.3063213 112.501655,39.1321298 C112.094623,39.9579382 111.547077,40.6428632 110.859,41.1869253 C110.170923,41.7309873 109.371409,42.1390278 108.460434,42.4110588 C107.549458,42.6830898 106.590041,42.8191033 105.582154,42.8191033 C104.302912,42.8191033 103.072145,42.6053678 101.889815,42.1778905 C100.707486,41.7504132 99.6899222,41.0314848 98.8370943,40.0210839 L101.59908,37.3396486 C102.044876,38.0197262 102.631187,38.5492072 103.358029,38.9281075 C104.084871,39.3070079 104.855312,39.4964552 105.669375,39.4964552 C106.095788,39.4964552 106.522196,39.4381637 106.94861,39.321579 C107.375024,39.2049943 107.762667,39.0301198 108.111551,38.7969504 C108.460435,38.5637809 108.741477,38.2674659 108.954684,37.9079963 C109.167891,37.5485267 109.274493,37.1356287 109.274493,36.6692898 C109.274493,35.9114891 109.032216,35.3285742 108.547654,34.9205276 C108.063093,34.5124811 107.462246,34.1675898 106.745095,33.8858434 C106.027944,33.604097 105.242967,33.3369276 104.390139,33.0843274 C103.537311,32.8317272 102.752334,32.4868359 102.035183,32.0496431 C101.318032,31.6124504 100.717185,31.0295355 100.232624,30.300881 C99.7480625,29.5722265 99.5057855,28.595844 99.5057855,27.3717044 C99.5057855,26.3030111 99.7238348,25.3800625 100.15994,24.602831 C100.596045,23.8255995 101.167819,23.1795356 101.875278,22.6646197 C102.582738,22.1497038 103.391943,21.7659515 104.302918,21.5133513 C105.213894,21.260751 106.144237,21.1344528 107.093978,21.1344528 C108.179395,21.1344528 109.230877,21.299612 110.248456,21.6299354 C111.266035,21.9602588 112.181842,22.5043127 112.995905,23.2621134 L110.32114,26.0892789 Z" id="FOKUS-Copy" fill="#4370F7"></path>
                    <path d="M21.6500946,48.2582827 L23.5339331,48.2582827 L25.3883366,53.1370017 L27.2623635,48.2582827 L29.1265787,48.2582827 L29.1265787,55.2222606 L27.9491797,55.2222606 L27.9491797,49.4386179 L27.9295563,49.4386179 L25.8200496,55.2222606 L24.9566237,55.2222606 L22.847117,49.4386179 L22.8274936,49.4386179 L22.8274936,55.2222606 L21.6500946,55.2222606 L21.6500946,48.2582827 Z M40.1363503,53.392741 L37.5068256,53.392741 L36.3882965,55.2222606 L34.8871127,55.2222606 L39.3317942,48.2582827 L44.1983771,48.2582827 L44.1983771,49.3796012 L41.3726193,49.3796012 L41.3726193,51.0910873 L44.0217672,51.0910873 L44.0217672,52.2124058 L41.3726193,52.2124058 L41.3726193,54.1009421 L44.316117,54.1009421 L44.316117,55.2222606 L40.1363503,55.2222606 L40.1363503,53.392741 Z M40.1363503,52.3304393 L40.1363503,49.3796012 L39.9891754,49.3796012 L38.1543951,52.3304393 L40.1363503,52.3304393 Z M56.7191441,54.710782 C55.8622549,55.1698036 54.9039925,55.3993109 53.844328,55.3993109 C53.3079546,55.3993109 52.8157413,55.312426 52.3676733,55.1386535 C51.9196053,54.9648811 51.5336839,54.7189804 51.2098976,54.400944 C50.8861112,54.0829077 50.6326459,53.7009419 50.449494,53.2550352 C50.2663421,52.8091286 50.1747675,52.3140485 50.1747675,51.76978 C50.1747675,51.2123967 50.2663421,50.7058412 50.449494,50.2500984 C50.6326459,49.7943556 50.8861112,49.4058325 51.2098976,49.0845174 C51.5336839,48.7632023 51.9196053,48.5156622 52.3676733,48.3418898 C52.8157413,48.1681173 53.3079546,48.0812324 53.844328,48.0812324 C54.3741602,48.0812324 54.8712793,48.1451666 55.3357002,48.2730369 C55.800121,48.4009072 56.2154771,48.6287752 56.5817809,48.9566477 L55.6692966,49.8812437 C55.4468979,49.6648478 55.1770799,49.4976353 54.8598347,49.3796012 C54.5425895,49.2615671 54.2073612,49.2025509 53.8541397,49.2025509 C53.494377,49.2025509 53.1689603,49.2664851 52.8778796,49.3943554 C52.5867989,49.5222257 52.3366041,49.6992742 52.1272877,49.9255062 C51.9179712,50.1517383 51.7560805,50.4156717 51.6416105,50.7173145 C51.5271406,51.0189572 51.4699065,51.3435461 51.4699065,51.691091 C51.4699065,52.0648657 51.5271406,52.4091267 51.6416105,52.7238844 C51.7560805,53.038642 51.9179712,53.3107721 52.1272877,53.5402829 C52.3366041,53.7697937 52.5867989,53.9501209 52.8778796,54.0812699 C53.1689603,54.2124189 53.494377,54.2779924 53.8541397,54.2779924 C54.1681143,54.2779924 54.4640964,54.2484843 54.7420948,54.1894673 C55.0200932,54.1304502 55.2670175,54.0386473 55.4828751,53.9140557 L55.4828751,52.2714225 L54.0601845,52.2714225 L54.0601845,51.150104 L56.7191441,51.150104 L56.7191441,54.710782 Z M63.1959291,48.2582827 L64.4321982,48.2582827 L64.4321982,54.1009421 L67.3855075,54.1009421 L67.3855075,55.2222606 L63.1959291,55.2222606 L63.1959291,48.2582827 Z M73.303028,48.2582827 L77.9046961,48.2582827 L77.9046961,49.3796012 L74.5392971,49.3796012 L74.5392971,51.0910873 L77.7280862,51.0910873 L77.7280862,52.2124058 L74.5392971,52.2124058 L74.5392971,54.1009421 L78.081306,54.1009421 L78.081306,55.2222606 L73.303028,55.2222606 L73.303028,48.2582827 Z M84.3127995,48.2582827 L86.7264677,48.2582827 C87.0600657,48.2582827 87.382212,48.2894301 87.6929161,48.3517259 C88.0036202,48.4140217 88.2799791,48.5205787 88.5220013,48.6714 C88.7640234,48.8222214 88.9569841,49.0254993 89.1008891,49.2812399 C89.2447942,49.5369805 89.3167456,49.8615694 89.3167456,50.2550165 C89.3167456,50.7599402 89.1777485,51.1828894 88.8997501,51.5238769 C88.6217517,51.8648643 88.2243835,52.0714209 87.7076336,52.1435529 L89.5522255,55.2222606 L88.0608533,55.2222606 L86.4517412,52.2714225 L85.5490686,52.2714225 L85.5490686,55.2222606 L84.3127995,55.2222606 L84.3127995,48.2582827 Z M86.5106112,51.2091208 C86.6872219,51.2091208 86.86383,51.2009241 87.0404407,51.1845305 C87.2170515,51.1681369 87.3789422,51.1287927 87.5261179,51.066497 C87.6732935,51.0042012 87.7926675,50.9091196 87.8842434,50.7812493 C87.9758194,50.653379 88.0216066,50.4746911 88.0216066,50.2451804 C88.0216066,50.0418994 87.9790899,49.8779656 87.8940551,49.753374 C87.8090203,49.6287824 87.6978226,49.5353402 87.5604587,49.4730444 C87.4230948,49.4107486 87.2710156,49.3697652 87.1042165,49.3500928 C86.9374175,49.3304204 86.7755267,49.3205844 86.6185394,49.3205844 L85.5490686,49.3205844 L85.5490686,51.2091208 L86.5106112,51.2091208 Z M95.5089926,48.2582827 L97.1475396,48.2582827 L100.512939,53.4320855 L100.532562,53.4320855 L100.532562,48.2582827 L101.768831,48.2582827 L101.768831,55.2222606 L100.198966,55.2222606 L96.7648849,49.8812437 L96.7452616,49.8812437 L96.7452616,55.2222606 L95.5089926,55.2222606 L95.5089926,48.2582827 Z M108.333921,48.2582827 L112.935589,48.2582827 L112.935589,49.3796012 L109.57019,49.3796012 L109.57019,51.0910873 L112.758979,51.0910873 L112.758979,52.2124058 L109.57019,52.2124058 L109.57019,54.1009421 L113.112199,54.1009421 L113.112199,55.2222606 L108.333921,55.2222606 L108.333921,48.2582827 Z" id="MÆGLERNE" fill="#4370F7"></path>
                    <polygon id="Path-Copy" fill="#000000" transform="translate(105.777055, 11.083381) scale(-1, 1) translate(-105.777055, -11.083381) " points="98.4419119 11.3759209 107.530081 0.765684516 112.472581 0.765684516 102.849242 11.3759209 113.112199 21.4010777 107.966184 21.4010777"></polygon>
                    <polygon id="Path-Copy-3" fill="#000000" points="21.6500946 66.143791 30.7382633 55.5335546 35.6807639 55.5335546 26.0574245 66.143791 36.3203816 76.1689478 31.1743663 76.1689478"></polygon>
                    <polygon id="Path-Copy-2" fill="#000000" transform="translate(123.633079, 29.006327) rotate(90.000000) translate(-123.633079, -29.006327) " points="116.297935 29.2988672 125.386104 18.6886308 130.328605 18.6886308 120.705265 29.2988672 130.968223 39.324024 125.822207 39.324024"></polygon>
                    <polygon id="Path-Copy-4" fill="#000000" transform="translate(11.072074, 48.520807) scale(1, -1) rotate(90.000000) translate(-11.072074, -48.520807) " points="3.7369303 48.8133472 12.825099 38.2031108 17.7675996 38.2031108 8.14426021 48.8133472 18.4072174 58.838504 13.261202 58.838504"></polygon>
                    <path d="M21.500252,0.924802145 L21.500252,76.2365076" id="Line" stroke="#FF9585" stroke-linecap="round" stroke-linejoin="round" stroke-dasharray="1,3"></path>
                    <path d="M0.647650662,0.924802145 L0.647650662,76.2365073" id="Line-Copy-7" stroke="#FF9585" stroke-linecap="round" stroke-linejoin="round" stroke-dasharray="1,3"></path>
                    <path d="M113.242745,0.92491657 L113.242745,75.3585568" id="Line-Copy" stroke="#FF9585" stroke-linecap="round" stroke-linejoin="round" stroke-dasharray="1,3"></path>
                    <path d="M134.059667,0.924802145 L134.059667,75.3585568" id="Line-Copy-6" stroke="#FF9585" stroke-linecap="round" stroke-linejoin="round" stroke-dasharray="1,3"></path>
                    <path d="M132.910797,55.3767366 L0.672662323,55.3767366" id="Line-Copy-2" stroke="#FF9585" stroke-linecap="round" stroke-linejoin="round" stroke-dasharray="1,3"></path>
                    <path d="M133.349679,76.3042468 L0.672645115,76.3042468" id="Line-Copy-5" stroke="#FF9585" stroke-linecap="round" stroke-linejoin="round" stroke-dasharray="1,3"></path>
                    <path d="M133.349684,21.5278258 L0.67266183,21.5278258" id="Line-Copy-3" stroke="#FF9585" stroke-linecap="round" stroke-linejoin="round" stroke-dasharray="1,3"></path>
                    <path d="M133.349665,0.607020744 L0.672652693,0.607020744" id="Line-Copy-4" stroke="#FF9585" stroke-linecap="round" stroke-linejoin="round" stroke-dasharray="1,3"></path>
                </g>
            </g>
        </g>
    </g>
</svg>