<?xml version="1.0" encoding="UTF-8"?>
<svg width="300px" height="364px" viewBox="0 0 300 364" version="1.1" xmlns="http://www.w3.org/2000/svg" xmlns:xlink="http://www.w3.org/1999/xlink">
    <!-- Generator: Sketch 41.2 (35397) - http://www.bohemiancoding.com/sketch -->
    <title>for sale sign</title>
    <desc>Created with Sketch.</desc>
    <defs>
        <rect id="path-1" x="0.906344411" y="0.906344411" width="299.093656" height="362.537764"></rect>
    </defs>
    <g id="styleguide" stroke="none" stroke-width="1" fill="none" fill-rule="evenodd">
        <g id="Examples-of-use" transform="translate(-499.000000, -3812.000000)">
            <g id="for-sale-sign" transform="translate(499.000000, 3812.000000)">
                <rect id="Rectangle-13-Copy" fill="#4370F7" x="0.514401134" y="0.617099299" width="299.093656" height="362.537764"></rect>
                <mask id="mask-2" fill="white">
                    <use xlink:href="#path-1"></use>
                </mask>
                <g id="Rectangle-2"></g>
                <polygon id="Path-Copy-2" fill="#FF9585" mask="url(#mask-2)" points="98.36872 50.6087923 401.11724 -301.96419 565.763693 -301.96419 245.187364 50.6087923 587.070881 383.739862 415.644868 383.739862"></polygon>
                <g id="logo-7-copy-4" mask="url(#mask-2)" fill="#FFFFFF">
                    <g transform="translate(52.176033, 134.756072)">
                        <path d="M1.28526224,1.88511957 L29.4727285,1.88511957 L29.4727285,8.9165663 L9.05686126,8.9165663 L9.05686126,20.3889268 L28.3008207,20.3889268 L28.3008207,27.4203735 L9.05686126,27.4203735 L9.05686126,45.5541045 L1.28526224,45.5541045 L1.28526224,1.88511957 Z M34.3453978,23.9046501 C34.3453978,20.4094691 34.921066,17.2330139 36.0724198,14.3751894 C37.2237735,11.5173649 38.817141,9.08105466 40.8525699,7.06618559 C42.8879989,5.05131651 45.3140294,3.4990682 48.1307341,2.40939411 C50.9474388,1.31972002 54.0416557,0.774891141 57.4134774,0.774891141 C60.8264189,0.733771364 63.9514751,1.23748108 66.7887397,2.28603539 C69.6260043,3.33458971 72.0725944,4.86627843 74.1285832,6.88114751 C76.1845721,8.89601659 77.7882193,11.3220471 78.9395731,14.1593117 C80.0909268,16.9965763 80.6665951,20.1627516 80.6665951,23.6579327 C80.6665951,27.0708742 80.0909268,30.1753708 78.9395731,32.9715157 C77.7882193,35.7676605 76.1845721,38.1731314 74.1285832,40.1880005 C72.0725944,42.2028695 69.6260043,43.7756774 66.7887397,44.9064713 C63.9514751,46.0372652 60.8264189,46.6232132 57.4134774,46.664333 C54.0416557,46.664333 50.9474388,46.1195041 48.1307341,45.02983 C45.3140294,43.9401559 42.8879989,42.3981874 40.8525699,40.4038782 C38.817141,38.409569 37.2237735,36.0143779 36.0724198,33.2182331 C34.921066,30.4220882 34.3453978,27.3175916 34.3453978,23.9046501 Z M42.4870729,23.4112153 C42.4870729,25.7550426 42.8468656,27.9137985 43.5664617,29.8875478 C44.2860578,31.8612971 45.303757,33.5677422 46.6195899,35.0069344 C47.9354227,36.4461266 49.5082306,37.5769036 51.3380607,38.3992991 C53.1678908,39.2216946 55.213569,39.6328862 57.4751567,39.6328862 C59.7367445,39.6328862 61.7927025,39.2216946 63.6430925,38.3992991 C65.4934824,37.5769036 67.0765701,36.4461266 68.392403,35.0069344 C69.7082358,33.5677422 70.7259351,31.8612971 71.4455312,29.8875478 C72.1651273,27.9137985 72.5249199,25.7550426 72.5249199,23.4112153 C72.5249199,21.2318671 72.1651273,19.1964686 71.4455312,17.3049589 C70.7259351,15.4134491 69.7082358,13.7584029 68.392403,12.3397706 C67.0765701,10.9211383 65.4934824,9.81092099 63.6430925,9.00908534 C61.7927025,8.20724969 59.7367445,7.80633787 57.4751567,7.80633787 C55.213569,7.80633787 53.1678908,8.20724969 51.3380607,9.00908534 C49.5082306,9.81092099 47.9354227,10.9211383 46.6195899,12.3397706 C45.303757,13.7584029 44.2860578,15.4134491 43.5664617,17.3049589 C42.8468656,19.1964686 42.4870729,21.2318671 42.4870729,23.4112153 Z M88.1480776,24.3386901 L107.428583,1.88511957 L117.914074,1.88511957 L97.4982064,24.3386901 L119.271019,45.5541045 L108.353773,45.5541045 L88.1480776,24.3386901 Z M158.437411,29.5174716 C158.437411,32.1491374 157.985101,34.5237689 157.080466,36.6414374 C156.17583,38.7591059 154.942256,40.5580692 153.379704,42.0383812 C151.817153,43.5186932 149.96679,44.6597499 147.828562,45.4615855 C145.690334,46.2634212 143.367101,46.664333 140.858795,46.664333 C138.350488,46.664333 136.027256,46.2634212 133.889027,45.4615855 C131.750799,44.6597499 129.890157,43.5186932 128.307045,42.0383812 C126.723934,40.5580692 125.490359,38.7591059 124.606284,36.6414374 C123.722209,34.5237689 123.280178,32.1491374 123.280178,29.5174716 L123.280178,1.88511957 L131.051777,1.88511957 L131.051777,29.2707542 C131.051777,30.3398684 131.216253,31.4603655 131.545212,32.6322792 C131.87417,33.8041928 132.418999,34.8835708 133.179715,35.8704454 C133.94043,36.8573201 134.94785,37.6694235 136.202003,38.3067801 C137.456156,38.9441366 139.008405,39.2628101 140.858795,39.2628101 C142.709185,39.2628101 144.261433,38.9441366 145.515586,38.3067801 C146.769739,37.6694235 147.777159,36.8573201 148.537875,35.8704454 C149.29859,34.8835708 149.843419,33.8041928 150.172378,32.6322792 C150.501336,31.4603655 150.665812,30.3398684 150.665812,29.2707542 L150.665812,1.88511957 L158.437411,1.88511957 L158.437411,29.5174716 Z M189.400449,11.2603819 C188.578053,10.0679083 187.478116,9.19412619 186.100603,8.6390092 C184.723091,8.08389221 183.27364,7.80633787 181.752208,7.80633787 C180.847573,7.80633787 179.973791,7.90913577 179.130836,8.11473466 C178.28788,8.32033355 177.527176,8.64928683 176.8487,9.10160438 C176.170223,9.55392192 175.625394,10.13987 175.214197,10.8594661 C174.802999,11.5790622 174.597403,12.4322847 174.597403,13.4191594 C174.597403,14.8994714 175.111392,16.0302483 176.139387,16.811524 C177.167381,17.5927998 178.442075,18.271266 179.963507,18.8469428 C181.484939,19.4226197 183.150265,19.9777284 184.959535,20.5122855 C186.768805,21.0468426 188.434131,21.7869875 189.955563,22.7327423 C191.476995,23.6784972 192.751689,24.9326316 193.779683,26.4951831 C194.807678,28.0577347 195.321667,30.1342523 195.321667,32.7247982 C195.321667,35.0686255 194.889916,37.1143037 194.026401,38.8618943 C193.162885,40.6094848 192.001269,42.0589352 190.541517,43.210289 C189.081765,44.3616427 187.385599,45.2251451 185.45297,45.800822 C183.52034,46.3764989 181.484942,46.664333 179.346714,46.664333 C176.632808,46.664333 174.021742,46.2120222 171.513435,45.3073871 C169.005129,44.402752 166.846373,42.8813431 165.037103,40.7431147 L170.896642,35.0686138 C171.842396,36.507806 173.086251,37.6283031 174.628243,38.4301388 C176.170234,39.2319744 177.804721,39.6328862 179.531752,39.6328862 C180.436387,39.6328862 181.341008,39.5095288 182.245643,39.2628101 C183.150278,39.0160914 183.972662,38.646019 184.712818,38.1525817 C185.452974,37.6591443 186.049201,37.0320771 186.501519,36.2713613 C186.953837,35.5106454 187.179992,34.6368632 187.179992,33.6499886 C187.179992,32.0463173 186.666002,30.8127425 185.638008,29.9492271 C184.610014,29.0857118 183.33532,28.3558467 181.813888,27.75961 C180.292456,27.1633732 178.62713,26.5979847 176.81786,26.0634276 C175.00859,25.5288705 173.343264,24.7990054 171.821832,23.8738105 C170.3004,22.9486155 169.025706,21.7150407 167.997712,20.173049 C166.969717,18.6310574 166.455728,16.5648196 166.455728,13.9742736 C166.455728,11.7126859 166.918318,9.75952574 167.843513,8.11473466 C168.768708,6.46994357 169.981724,5.10273149 171.482595,4.0130574 C172.983467,2.9233833 174.700192,2.11127989 176.632822,1.57672279 C178.565451,1.04216568 180.539171,0.774891141 182.55404,0.774891141 C184.856748,0.774891141 187.087462,1.124404 189.24625,1.82344021 C191.405039,2.52247643 193.347919,3.67381292 195.07495,5.27748422 L189.400449,11.2603819 Z" id="FOKUS-Copy"></path>
                        <path d="M0.382916085,56.1264033 L4.33039495,56.1264033 L8.21619446,66.324057 L12.1431135,56.1264033 L16.0494728,56.1264033 L16.0494728,70.6827316 L13.5822985,70.6827316 L13.5822985,58.5935776 L13.541179,58.5935776 L9.12082504,70.6827316 L7.31156389,70.6827316 L2.89120995,58.5935776 L2.85009038,58.5935776 L2.85009038,70.6827316 L0.382916085,70.6827316 L0.382916085,56.1264033 Z M39.1198367,66.8586114 L33.6098141,66.8586114 L31.2659985,70.6827316 L28.1203513,70.6827316 L37.4339342,56.1264033 L47.631588,56.1264033 L47.631588,58.4702188 L41.7103697,58.4702188 L41.7103697,62.0476216 L47.2615118,62.0476216 L47.2615118,64.3914371 L41.7103697,64.3914371 L41.7103697,68.338916 L47.8783054,68.338916 L47.8783054,70.6827316 L39.1198367,70.6827316 L39.1198367,66.8586114 Z M39.1198367,64.6381546 L39.1198367,58.4702188 L38.8114399,58.4702188 L34.9667599,64.6381546 L39.1198367,64.6381546 Z M73.8681588,69.6136227 C72.0725952,70.5730842 70.0646096,71.0528077 67.8441416,71.0528077 C66.720201,71.0528077 65.6887954,70.8711981 64.7498938,70.5079734 C63.8109923,70.1447487 63.0023154,69.6307592 62.3238391,68.9659895 C61.6453628,68.3012197 61.1142403,67.5028227 60.7304557,66.5707744 C60.3466711,65.6387262 60.1547817,64.603894 60.1547817,63.4662468 C60.1547817,62.3011864 60.3466711,61.2423681 60.7304557,60.2897599 C61.1142403,59.3371517 61.6453628,58.5250483 62.3238391,57.8534253 C63.0023154,57.1818022 63.8109923,56.6643861 64.7498938,56.3011614 C65.6887954,55.9379367 66.720201,55.7563271 67.8441416,55.7563271 C68.9543756,55.7563271 69.996061,55.8899644 70.969229,56.1572429 C71.9423971,56.4245215 72.8127526,56.9008184 73.5803218,57.5861481 L71.6682617,59.5187679 C71.2022376,59.0664504 70.6368491,58.7169375 69.9720794,58.4702188 C69.3073097,58.2235002 68.6048574,58.1001427 67.8647014,58.1001427 C67.1108388,58.1001427 66.4289461,58.23378 65.8190027,58.5010585 C65.2090593,58.7683371 64.68479,59.1384095 64.2461791,59.611287 C63.8075681,60.0841644 63.4683351,60.6358465 63.2284697,61.2663497 C62.9886043,61.896853 62.8686734,62.5753191 62.8686734,63.3017685 C62.8686734,64.0830443 62.9886043,64.8026296 63.2284697,65.460546 C63.4683351,66.1184624 63.8075681,66.6872775 64.2461791,67.1670082 C64.68479,67.646739 65.2090593,68.0236646 65.8190027,68.2977964 C66.4289461,68.5719283 67.1108388,68.7089922 67.8647014,68.7089922 C68.5226178,68.7089922 69.1428318,68.6473134 69.725362,68.5239541 C70.3078922,68.4005948 70.8253083,68.2087053 71.2776258,67.9482801 L71.2776258,64.5147959 L68.2964569,64.5147959 L68.2964569,62.1709803 L73.8681588,62.1709803 L73.8681588,69.6136227 Z M87.4399016,56.1264033 L90.0304346,56.1264033 L90.0304346,68.338916 L96.2189302,68.338916 L96.2189302,70.6827316 L87.4399016,70.6827316 L87.4399016,56.1264033 Z M108.618765,56.1264033 L118.261305,56.1264033 L118.261305,58.4702188 L111.209298,58.4702188 L111.209298,62.0476216 L117.891229,62.0476216 L117.891229,64.3914371 L111.209298,64.3914371 L111.209298,68.338916 L118.631381,68.338916 L118.631381,70.6827316 L108.618765,70.6827316 L108.618765,56.1264033 Z M131.689129,56.1264033 L136.746836,56.1264033 C137.445873,56.1264033 138.120912,56.1915086 138.771975,56.3217212 C139.423038,56.4519339 140.002133,56.6746626 140.509277,56.9899143 C141.016421,57.3051659 141.420759,57.7300639 141.722304,58.264621 C142.023849,58.7991781 142.17462,59.4776442 142.17462,60.3000398 C142.17462,61.3554474 141.883359,62.2395093 141.300829,62.9522521 C140.718299,63.6649949 139.885636,64.0967461 138.802815,64.2475186 L142.668055,70.6827316 L139.542967,70.6827316 L136.171162,64.5147959 L134.279662,64.5147959 L134.279662,70.6827316 L131.689129,70.6827316 L131.689129,56.1264033 Z M136.294521,62.294339 C136.664599,62.294339 137.034671,62.277206 137.404749,62.2429395 C137.774827,62.2086731 138.114061,62.1264347 138.422459,61.9962221 C138.730857,61.8660095 138.980999,61.6672669 139.172891,61.3999883 C139.364783,61.1327098 139.460728,60.7592107 139.460728,60.27948 C139.460728,59.8545756 139.371637,59.511916 139.193451,59.2514907 C139.015265,58.9910654 138.782257,58.7957494 138.494418,58.6655368 C138.20658,58.5353242 137.887906,58.4496593 137.538388,58.4085395 C137.18887,58.3674197 136.849637,58.3468601 136.520679,58.3468601 L134.279662,58.3468601 L134.279662,62.294339 L136.294521,62.294339 Z M155.150129,56.1264033 L158.583613,56.1264033 L165.63562,66.9408506 L165.676739,66.9408506 L165.676739,56.1264033 L168.267272,56.1264033 L168.267272,70.6827316 L164.977706,70.6827316 L157.781781,59.5187679 L157.740662,59.5187679 L157.740662,70.6827316 L155.150129,70.6827316 L155.150129,56.1264033 Z M182.024053,56.1264033 L191.666592,56.1264033 L191.666592,58.4702188 L184.614586,58.4702188 L184.614586,62.0476216 L191.296516,62.0476216 L191.296516,64.3914371 L184.614586,64.3914371 L184.614586,68.338916 L192.036669,68.338916 L192.036669,70.6827316 L182.024053,70.6827316 L182.024053,56.1264033 Z" id="MÆGLERNE"></path>
                    </g>
                </g>
                <path d="M38.2178248,76.1329305 L47.1253776,76.1329305 L47.1253776,43.5861027 L58.6595166,43.5861027 L58.6595166,35.7063444 L26.6836858,35.7063444 L26.6836858,43.5861027 L38.2178248,43.5861027 L38.2178248,76.1329305 Z M63.0561934,76.1329305 L71.9637462,76.1329305 L71.9637462,35.7063444 L63.0561934,35.7063444 L63.0561934,76.1329305 Z M80.4145015,76.1329305 L105.823867,76.1329305 L105.823867,67.910574 L89.3220544,67.910574 L89.3220544,35.7063444 L80.4145015,35.7063444 L80.4145015,76.1329305 Z M153.730514,38.9039275 C150.304532,35.8776435 145.907855,34.6785498 141.339879,34.6785498 C133.403021,34.6785498 125.922961,39.189426 125.922961,47.8114804 C125.922961,61.2870091 144.88006,57.2900302 144.88006,64.7129909 C144.88006,67.5679758 141.625378,68.9383686 138.713293,68.9383686 C135.744109,68.9383686 132.774924,67.5108761 130.947734,65.1126888 L124.609668,72.078852 C128.435347,75.6190332 133.003323,77.1607251 138.199396,77.1607251 C146.535952,77.1607251 153.787613,72.8782477 153.787613,63.8564955 C153.787613,49.6957704 135.173112,54.4350453 135.173112,47.0691843 C135.173112,44.0429003 138.656193,42.9009063 141.16858,42.9009063 C143.338369,42.9009063 146.193353,43.7574018 147.620846,45.5845921 L153.730514,38.9039275 Z M156.2429,76.1329305 L166.064048,76.1329305 L169.432931,67.5679758 L185.135347,67.5679758 L188.618429,76.1329305 L198.667976,76.1329305 L181.081269,35.7063444 L173.715408,35.7063444 L156.2429,76.1329305 Z M182.109063,60.0308157 L172.230816,60.0308157 L177.14139,47.4688822 L182.109063,60.0308157 Z M203.064653,76.1329305 L228.474018,76.1329305 L228.474018,67.910574 L211.972205,67.910574 L211.972205,35.7063444 L203.064653,35.7063444 L203.064653,76.1329305 Z M269.985498,52.1510574 L254.168882,52.1510574 L254.168882,60.3734139 L261.420544,60.3734139 L261.420544,66.9398792 C259.764653,67.8534743 256.909668,68.9383686 253.026888,68.9383686 C245.432628,68.9383686 240.464955,63.4567976 240.464955,55.9196375 C240.464955,48.3824773 245.432628,42.9009063 253.026888,42.9009063 C257.537764,42.9009063 260.449849,44.2141994 262.848036,46.7265861 L269.129003,39.8746224 C265.074924,36.1060423 259.422054,34.6785498 253.026888,34.6785498 C240.407855,34.6785498 231.214804,42.958006 231.214804,55.9196375 C231.214804,68.8812689 240.407855,77.1607251 253.026888,77.1607251 C258.965257,77.1607251 264.732326,76.0187311 269.985498,73.2779456 L269.985498,52.1510574 Z" id="TIL-SALG-Copy" fill="#FFFFFF" mask="url(#mask-2)"></path>
                <path d="M25.3413897,302.773414 L27.244713,302.773414 C30.8882175,302.773414 34.858006,302.882175 34.858006,307.232628 C34.858006,310.114804 33.1722054,312.181269 29.6374622,312.181269 C26.1570997,312.181269 24.4712991,310.441088 23.9274924,307.722054 L15.3353474,309.734139 C16.9123867,316.640483 22.2960725,319.685801 29.1480363,319.685801 C36.7069486,319.685801 43.0151057,315.879154 43.0151057,308.1571 C43.0151057,303.697885 40.4048338,299.782477 35.7824773,299.18429 L35.7824773,299.021148 C40.0241692,298.151057 42.3625378,294.833837 42.3625378,290.592145 C42.3625378,283.196375 36.2175227,279.879154 29.3655589,279.879154 C22.8398792,279.879154 17.347432,282.435045 15.6616314,289.123867 L24.6344411,290.97281 C25.1238671,288.960725 26.8640483,287.383686 29.4199396,287.383686 C32.0845921,287.383686 34.2054381,289.069486 34.2054381,291.407855 C34.2054381,295.05136 30.9969789,295.703927 28.0060423,295.703927 L25.3413897,295.703927 L25.3413897,302.773414 Z M73.9033233,280.531722 L50.6283988,280.531722 L50.1933535,301.794562 C52.7492447,300.924471 55.5226586,300.380665 58.1873112,300.380665 C62.429003,300.380665 67.0513595,301.685801 67.0513595,306.743202 C67.0513595,310.060423 64.8217523,312.507553 61.3413897,312.507553 C58.5135952,312.507553 56.5015106,310.65861 56.0664653,307.885196 L47.5287009,309.8429 C49.2145015,316.36858 53.8912387,319.685801 60.5256798,319.685801 C68.9546828,319.685801 75.2084592,314.628399 75.2084592,305.927492 C75.2084592,298.042296 69.6616314,293.202417 61.8851964,293.202417 C60.4169184,293.202417 59.3836858,293.311178 58.4592145,293.637462 L58.6223565,287.70997 L73.9033233,287.70997 L73.9033233,280.531722 Z M106.096677,280.531722 L82.8217523,280.531722 L82.3867069,301.794562 C84.9425982,300.924471 87.7160121,300.380665 90.3806647,300.380665 C94.6223565,300.380665 99.244713,301.685801 99.244713,306.743202 C99.244713,310.060423 97.0151057,312.507553 93.5347432,312.507553 C90.7069486,312.507553 88.694864,310.65861 88.2598187,307.885196 L79.7220544,309.8429 C81.407855,316.36858 86.0845921,319.685801 92.7190332,319.685801 C101.148036,319.685801 107.401813,314.628399 107.401813,305.927492 C107.401813,298.042296 101.854985,293.202417 94.0785498,293.202417 C92.6102719,293.202417 91.5770393,293.311178 90.652568,293.637462 L90.81571,287.70997 L106.096677,287.70997 L106.096677,280.531722 Z M138.29003,280.531722 L115.015106,280.531722 L114.58006,301.794562 C117.135952,300.924471 119.909366,300.380665 122.574018,300.380665 C126.81571,300.380665 131.438066,301.685801 131.438066,306.743202 C131.438066,310.060423 129.208459,312.507553 125.728097,312.507553 C122.900302,312.507553 120.888218,310.65861 120.453172,307.885196 L111.915408,309.8429 C113.601208,316.36858 118.277946,319.685801 124.912387,319.685801 C133.34139,319.685801 139.595166,314.628399 139.595166,305.927492 C139.595166,298.042296 134.048338,293.202417 126.271903,293.202417 C124.803625,293.202417 123.770393,293.311178 122.845921,293.637462 L123.009063,287.70997 L138.29003,287.70997 L138.29003,280.531722 Z M163.740181,319.033233 L173.256798,319.033233 L188.646526,287.70997 L188.646526,280.531722 L160.477341,280.531722 L160.477341,288.036254 L179.510574,288.036254 L163.740181,319.033233 Z M195.933535,319.033233 L205.450151,319.033233 L220.839879,287.70997 L220.839879,280.531722 L192.670695,280.531722 L192.670695,288.036254 L211.703927,288.036254 L195.933535,319.033233 Z M228.126888,319.033233 L237.643505,319.033233 L253.033233,287.70997 L253.033233,280.531722 L224.864048,280.531722 L224.864048,288.036254 L243.897281,288.036254 L228.126888,319.033233 Z M260.320242,319.033233 L269.836858,319.033233 L285.226586,287.70997 L285.226586,280.531722 L257.057402,280.531722 L257.057402,288.036254 L276.090634,288.036254 L260.320242,319.033233 Z" id="3555-7777-copy" fill="#FFFFFF" mask="url(#mask-2)"></path>
            </g>
        </g>
    </g>
</svg>